<svg id="donation" xmlns="http://www.w3.org/2000/svg" xmlns:xlink="http://www.w3.org/1999/xlink" width="79.571" height="75.354" viewBox="0 0 79.571 75.354">
  <defs>
    <clipPath id="clip-path">
      <rect id="Rectangle_3810" data-name="Rectangle 3810" width="79.571" height="75.354" fill="#444"/>
    </clipPath>
  </defs>
  <g id="Group_20237" data-name="Group 20237" transform="translate(0 0)">
    <g id="Group_20236" data-name="Group 20236" clip-path="url(#clip-path)">
      <path id="Path_37044" data-name="Path 37044" d="M80.514,12.611,68.606,8.656a1.832,1.832,0,1,0-1.155,3.477L75.776,14.9,68.533,17.3,33.994,6.5l8.25-2.74L49.736,6.25A1.832,1.832,0,1,0,50.89,2.773L42.822.093,42.8.087c-.044-.014-.088-.026-.133-.037L42.62.039c-.042-.009-.084-.016-.127-.022L42.437.01C42.4.006,42.358,0,42.318,0l-.064,0c-.037,0-.073,0-.11,0l-.073.005c-.034,0-.067.008-.1.013l-.08.014L41.8.056,41.713.08l-.045.012L27.446,4.815h0L16.239,8.539h0L3.977,12.611A1.832,1.832,0,0,0,2.722,14.35v20.4a1.832,1.832,0,1,0,3.664,0V17.986l22.047,7.323,11.98,3.979v41.7L6.386,59.681V50a1.832,1.832,0,1,0-3.664,0V61a1.832,1.832,0,0,0,1.255,1.739L41.668,75.261l.008,0c.028.009.057.017.086.025l.055.015.083.017.06.012c.028,0,.057.007.085.01l.058.007c.042,0,.084,0,.126.005h.033c.043,0,.085,0,.128-.005l.051-.006c.031,0,.062-.006.092-.011l.052-.01c.03-.006.06-.011.09-.018l.051-.014c.03-.008.06-.016.089-.026l.008,0L80.514,62.742A1.832,1.832,0,0,0,81.769,61V14.35a1.832,1.832,0,0,0-1.255-1.738M59.322,24.225l6.325-2.1V42.855l-2.613-1.413a1.832,1.832,0,0,0-2.424.64l-1.287,2.059ZM16.833,12.2l15.608,4.88a1.832,1.832,0,1,0,1.094-3.5l-8.978-2.808-.006,0-1.545-.483-.219-.068,5.253-1.745,34.54,10.8-1.635.543-3.616,1.2L43.918,16.831a1.832,1.832,0,0,0-1.094,3.5L51.376,23l-9.131,3.033L8.715,14.9ZM78.1,59.681,68.594,62.84l-.012,0-.592.2-.011,0-23.9,7.939v-41.7l11.581-3.847V50.527a1.832,1.832,0,0,0,3.385.971L62.8,45.484l3.8,2.056a1.832,1.832,0,0,0,2.7-1.612V20.906l8.794-2.92Z" transform="translate(-2.197 0)" fill="#444"/>
      <path id="Path_37045" data-name="Path 37045" d="M285.588,31.387a2.357,2.357,0,1,0-2.357-2.357,2.357,2.357,0,0,0,2.357,2.357" transform="translate(-228.614 -21.529)" fill="#444"/>
      <path id="Path_37046" data-name="Path 37046" d="M2.357,210.954A2.357,2.357,0,1,0,0,208.6a2.357,2.357,0,0,0,2.357,2.357" transform="translate(0 -166.469)" fill="#444"/>
    </g>
  </g>
</svg>
