<svg id="earrings" xmlns="http://www.w3.org/2000/svg" width="49.62" height="59.545" viewBox="0 0 49.62 59.545">
  <path id="Path_36874" data-name="Path 36874" d="M79.335,26.067h0a55.051,55.051,0,0,1-5.763-3.821A12.151,12.151,0,0,1,71.8,19.725C70.776,17.979,69.618,16,66.916,16a6.947,6.947,0,0,0-.992,13.823V32.05a2.974,2.974,0,0,0-1.584,4.3,6.942,6.942,0,0,0-.918,12.45,2.974,2.974,0,0,0-2.25,4.029,2.974,2.974,0,0,0-1.985,3.97,2.974,2.974,0,0,0-1.811,4.333,2.972,2.972,0,0,0-.616,4.494,2.975,2.975,0,0,0,2.217,4.962c.058,0,.115,0,.173-.005a2.976,2.976,0,0,0,4.977,3.03,2.977,2.977,0,0,0,5.579,0,2.976,2.976,0,0,0,4.977-3.03c.057,0,.115.005.173.005a2.975,2.975,0,0,0,2.217-4.962,2.972,2.972,0,0,0-.616-4.494,2.974,2.974,0,0,0-1.811-4.333,2.974,2.974,0,0,0-1.985-3.97A2.974,2.974,0,0,0,70.41,48.8a6.942,6.942,0,0,0-.918-12.45,2.974,2.974,0,0,0-1.583-4.3V28.9a.992.992,0,0,0-.992-.992,4.962,4.962,0,1,1,0-9.924c1.494,0,2.114.94,3.168,2.743a13.869,13.869,0,0,0,2.085,2.921,56.945,56.945,0,0,0,6.146,4.119h0a.991.991,0,0,0,1.02-1.7Zm-15.4,24.668a.992.992,0,1,1-.992.992A.992.992,0,0,1,63.939,50.735ZM61.954,54.7a.992.992,0,1,1-.992.992.992.992,0,0,1,.992-.992Zm-3.97,8.932a.992.992,0,1,1,.992.992A.992.992,0,0,1,57.984,63.637Zm1.985-4.962a.992.992,0,1,1-.992.992.992.992,0,0,1,.992-.992Zm-1.985,8.932a.992.992,0,1,1,.992.992A.992.992,0,0,1,57.984,67.606Zm3.97,4.962a.992.992,0,1,1,.992-.992A.992.992,0,0,1,61.954,72.569Zm4.962.992a.992.992,0,1,1,.992-.992A.992.992,0,0,1,66.916,73.561Zm4.962-.992a.992.992,0,1,1,.992-.992A.992.992,0,0,1,71.878,72.569Zm2.977-7.939a.992.992,0,1,1,.992-.992A.992.992,0,0,1,74.856,64.629Zm0,3.97a.992.992,0,1,1,.992-.992.992.992,0,0,1-.992.992Zm-.992-7.939a.992.992,0,1,1,.992-.992A.992.992,0,0,1,73.863,60.659Zm-1.985-3.97a.992.992,0,1,1,.992-.992A.992.992,0,0,1,71.878,56.69Zm-.992-4.962a.992.992,0,1,1-.992-.992A.992.992,0,0,1,70.886,51.728ZM69.112,54.6A2.974,2.974,0,0,0,71.1,58.57a2.972,2.972,0,0,0,1.166,3.606,2.969,2.969,0,0,0,.376,3.446,2.97,2.97,0,0,0-.588,2.983c-.057,0-.115-.005-.173-.005a2.982,2.982,0,0,0-2.789,1.937,2.971,2.971,0,0,0-4.345,0A2.982,2.982,0,0,0,61.954,68.6c-.058,0-.115,0-.173.005a2.97,2.97,0,0,0-.588-2.983,2.969,2.969,0,0,0,.376-3.446,2.972,2.972,0,0,0,1.166-3.606A2.974,2.974,0,0,0,64.72,54.6a2.974,2.974,0,0,0,1.39-4.905,6.756,6.756,0,0,0,1.61,0A2.974,2.974,0,0,0,69.112,54.6Zm2.766-11.8a4.962,4.962,0,1,1-4.962-4.962A4.962,4.962,0,0,1,71.878,42.8Zm-5.955-7.939a.992.992,0,1,1,.992.992A.992.992,0,0,1,65.924,34.856Z" transform="translate(-55.999 -16)" fill="#515151"/>
  <path id="Path_36875" data-name="Path 36875" d="M287.335,26.067h0a55.048,55.048,0,0,1-5.763-3.821,12.15,12.15,0,0,1-1.775-2.519C278.776,17.979,277.618,16,274.916,16a6.947,6.947,0,0,0-.992,13.823V32.05a2.974,2.974,0,0,0-1.584,4.3,6.942,6.942,0,0,0-.918,12.45,2.974,2.974,0,0,0-2.25,4.029,2.974,2.974,0,0,0-1.985,3.97,2.974,2.974,0,0,0-1.811,4.333,2.972,2.972,0,0,0-.616,4.494,2.975,2.975,0,0,0,2.217,4.962c.058,0,.115,0,.173-.005a2.976,2.976,0,0,0,4.977,3.03,2.977,2.977,0,0,0,5.579,0,2.976,2.976,0,0,0,4.977-3.03c.057,0,.115.005.173.005a2.975,2.975,0,0,0,2.217-4.962,2.972,2.972,0,0,0-.616-4.494,2.974,2.974,0,0,0-1.811-4.333,2.974,2.974,0,0,0-1.985-3.97,2.974,2.974,0,0,0-2.25-4.029,6.942,6.942,0,0,0-.918-12.45,2.974,2.974,0,0,0-1.583-4.3V28.9a.992.992,0,0,0-.992-.992,4.962,4.962,0,0,1,0-9.924c1.494,0,2.114.94,3.168,2.743a13.869,13.869,0,0,0,2.085,2.921,56.943,56.943,0,0,0,6.146,4.119h0a.991.991,0,0,0,1.02-1.7Zm-15.4,24.668a.992.992,0,1,1-.992.992A.992.992,0,0,1,271.939,50.735Zm-1.985,3.97a.992.992,0,1,1-.992.992.992.992,0,0,1,.992-.992Zm-3.97,8.932a.992.992,0,1,1,.992.992A.992.992,0,0,1,265.984,63.637Zm1.985-4.962a.992.992,0,1,1-.992.992.992.992,0,0,1,.992-.992Zm-1.985,8.932a.992.992,0,1,1,.992.992A.992.992,0,0,1,265.984,67.606Zm3.97,4.962a.992.992,0,1,1,.992-.992A.992.992,0,0,1,269.954,72.569Zm4.962.992a.992.992,0,1,1,.992-.992A.992.992,0,0,1,274.916,73.561Zm4.962-.992a.992.992,0,1,1,.992-.992A.992.992,0,0,1,279.878,72.569Zm2.977-7.939a.992.992,0,1,1,.992-.992A.992.992,0,0,1,282.856,64.629Zm0,3.97a.992.992,0,1,1,.992-.992.992.992,0,0,1-.992.992Zm-.992-7.939a.992.992,0,1,1,.992-.992A.992.992,0,0,1,281.863,60.659Zm-1.985-3.97a.992.992,0,1,1,.992-.992A.992.992,0,0,1,279.878,56.69Zm-.992-4.962a.992.992,0,1,1-.992-.992A.992.992,0,0,1,278.886,51.728ZM277.112,54.6a2.974,2.974,0,0,0,1.985,3.97,2.972,2.972,0,0,0,1.166,3.606,2.969,2.969,0,0,0,.376,3.446,2.97,2.97,0,0,0-.588,2.983c-.057,0-.115-.005-.173-.005a2.982,2.982,0,0,0-2.789,1.937,2.971,2.971,0,0,0-4.345,0,2.982,2.982,0,0,0-2.789-1.937c-.058,0-.115,0-.173.005a2.97,2.97,0,0,0-.588-2.983,2.969,2.969,0,0,0,.376-3.446,2.972,2.972,0,0,0,1.166-3.606,2.974,2.974,0,0,0,1.985-3.97,2.974,2.974,0,0,0,1.39-4.905,6.756,6.756,0,0,0,1.61,0,2.974,2.974,0,0,0,1.391,4.905Zm2.766-11.8a4.962,4.962,0,1,1-4.962-4.962A4.962,4.962,0,0,1,279.878,42.8Zm-5.955-7.939a.992.992,0,1,1,.992.992A.992.992,0,0,1,273.924,34.856Z" transform="translate(-238.196 -16)" fill="#515151"/>
</svg>
