<svg id="education-equipment-pencil-ruler-sketc" xmlns="http://www.w3.org/2000/svg" width="57.178" height="57.179" viewBox="0 0 57.178 57.179">
  <path id="Path_36880" data-name="Path 36880" d="M58.589,2.076a.953.953,0,0,0-1.039.2L31.543,28.293V5.812C31.543,4.1,29.341,2,26.778,2a4.765,4.765,0,0,0-4.765,4.765V37.823L18.2,41.635V5.812C18.2,4.1,16,2,13.436,2A4.765,4.765,0,0,0,8.671,6.765V8.671H3.906a.953.953,0,0,0-.953.953V23.919a.953.953,0,0,0,.953.953H6.765a.953.953,0,0,0,.953-.953V13.436h.953V47.744a.953.953,0,0,0,.1.429L9.738,50.1,2.276,57.55a.953.953,0,0,0-.2,1.039.941.941,0,0,0,.877.591H58.227a.953.953,0,0,0,.953-.953V2.953a.941.941,0,0,0-.591-.877ZM8.671,11.53H6.765a.953.953,0,0,0-.953.953V22.966H4.859V10.577H8.671ZM31.543,42.941,48.7,27.054V47.744H31.543ZM23.919,6.765a2.868,2.868,0,0,1,2.859-2.859c1.649,0,2.859,1.334,2.859,1.906V7.718H23.919Zm0,2.859h5.718V11.53H23.919Zm0,3.812h5.718V45.447l-.276-.286a.97.97,0,0,0-1.105-.172l-1.477.734L25.3,44.989a.953.953,0,0,0-1.105.172l-.276.286ZM24.51,48.7l-.381-.762L25.062,47l1.287.639a.911.911,0,0,0,.858,0L28.493,47l.934.934-.381.762ZM28.093,50.6l-1.315,2.63L25.463,50.6ZM10.577,6.765a2.868,2.868,0,0,1,2.859-2.859c1.649,0,2.859,1.334,2.859,1.906V11.53H10.577Zm0,6.671h5.718v32.4H10.577Zm5.6,34.308-2.745,5.489-2.745-5.489ZM57.274,9.624H54.415V11.53h2.859v2.859H52.509v1.906h4.765v2.859H54.415V21.06h2.859v2.859H54.415v1.906h2.859v2.859H52.509V30.59h4.765v2.859H54.415v1.906h2.859v2.859H54.415V40.12h2.859v2.859H52.509v1.906h4.765v2.859H54.415V49.65h2.859v2.859H54.415v1.906h2.859v2.859H5.25l5.384-5.384L12.588,55.8a.953.953,0,0,0,1.7,0L18.1,48.172a.953.953,0,0,0,.1-.429V44.322l3.812-3.812v7.233a.953.953,0,0,0,.1.429L25.93,55.8a.953.953,0,0,0,1.7,0L30.7,49.65H49.65A.953.953,0,0,0,50.6,48.7V24.872a.949.949,0,0,0-1.6-.7L31.543,40.339V30.98L57.274,5.25Z" transform="translate(-2.002 -2)" fill="#515151"/>
</svg>
