<svg id="gadget" xmlns="http://www.w3.org/2000/svg" width="57.57" height="57.57" viewBox="0 0 57.57 57.57">
  <path id="Path_36851" data-name="Path 36851" d="M264.947,0H240V1.919h24.947a1.919,1.919,0,0,1,1.919,1.919V53.732a1.919,1.919,0,0,1-1.919,1.919h-19.19V57.57h19.19a3.838,3.838,0,0,0,3.838-3.838V3.838A3.838,3.838,0,0,0,264.947,0Zm0,0" transform="translate(-211.215)" fill="#515151"/>
  <path id="Path_36852" data-name="Path 36852" d="M288.477,48A8.642,8.642,0,0,0,282,50.923l1.439,1.271a6.717,6.717,0,1,1,1.679,10.26l-.96,1.661A8.636,8.636,0,1,0,288.477,48Zm0,0" transform="translate(-248.177 -42.243)" fill="#515151"/>
  <path id="Path_36853" data-name="Path 36853" d="M300.8,89.6a4.8,4.8,0,1,0-4.8-4.8A4.8,4.8,0,0,0,300.8,89.6Zm0-7.676a2.879,2.879,0,1,1-2.879,2.879A2.879,2.879,0,0,1,300.8,81.919Zm0,0" transform="translate(-260.498 -70.405)" fill="#515151"/>
  <path id="Path_36854" data-name="Path 36854" d="M240.073,216A13.378,13.378,0,0,0,227,226.333l1.867.441a11.514,11.514,0,1,1,5.892,12.876l-.886,1.7a13.433,13.433,0,1,0,6.2-25.352Zm0,0" transform="translate(-199.774 -190.093)" fill="#515151"/>
  <path id="Path_36855" data-name="Path 36855" d="M267.341,265.259a7.661,7.661,0,0,1-5.117-1.955l-1.28,1.43a9.6,9.6,0,1,0-2.96-9.283l1.871.425a7.676,7.676,0,1,1,7.486,9.383Zm0,0" transform="translate(-227.042 -218.243)" fill="#515151"/>
  <path id="Path_36856" data-name="Path 36856" d="M432,32h1.919v1.919H432Zm0,0" transform="translate(-380.187 -28.162)" fill="#515151"/>
  <path id="Path_36857" data-name="Path 36857" d="M224,432h1.919v1.919H224Zm0,0" transform="translate(-197.134 -380.187)" fill="#515151"/>
  <path id="Path_36858" data-name="Path 36858" d="M432,432h1.919v1.919H432Zm0,0" transform="translate(-380.187 -380.187)" fill="#515151"/>
  <path id="Path_36859" data-name="Path 36859" d="M2.879,303.988H29.745a2.879,2.879,0,0,0,2.879-2.879V287.676a2.879,2.879,0,0,0-2.879-2.879H23.678L22,280.6a.96.96,0,0,0-.892-.6h-9.6a.96.96,0,0,0-.892.6l-1.677,4.2H2.879A2.879,2.879,0,0,0,0,287.676v13.433a2.879,2.879,0,0,0,2.879,2.879Zm-.96-16.312a.96.96,0,0,1,.96-.96H9.6a.96.96,0,0,0,.892-.6l1.677-4.2h8.3l1.677,4.2a.96.96,0,0,0,.892.6h6.717a.96.96,0,0,1,.96.96v13.433a.96.96,0,0,1-.96.96H2.879a.96.96,0,0,1-.96-.96Zm0,0" transform="translate(0 -246.417)" fill="#515151"/>
  <path id="Path_36860" data-name="Path 36860" d="M86.717,349.433A6.717,6.717,0,1,0,80,342.716,6.716,6.716,0,0,0,86.717,349.433Zm0-11.514a4.8,4.8,0,1,1-4.8,4.8A4.8,4.8,0,0,1,86.717,337.919Zm0,0" transform="translate(-70.405 -295.701)" fill="#515151"/>
  <path id="Path_36861" data-name="Path 36861" d="M40,352h1.919v1.919H40Zm0,0" transform="translate(-35.202 -309.782)" fill="#515151"/>
  <path id="Path_36862" data-name="Path 36862" d="M208,352h3.838v1.919H208Zm0,0" transform="translate(-183.053 -309.782)" fill="#515151"/>
  <path id="Path_36863" data-name="Path 36863" d="M.96,23.028H3.915a6.717,6.717,0,0,0,5.68,5.68v.077a2.879,2.879,0,0,0,5.757,0V15.352a2.879,2.879,0,1,0-5.757,0v.077a6.7,6.7,0,0,0-3.838,1.948v-.105a11.514,11.514,0,1,1,23.028,0v.105a6.7,6.7,0,0,0-3.838-1.948v-.077a2.879,2.879,0,0,0-5.757,0V28.785a2.879,2.879,0,0,0,5.757,0v-.077a6.717,6.717,0,0,0,5.68-5.68h2.955a.96.96,0,0,0,.96-.96v-4.8A17.271,17.271,0,1,0,0,17.271v4.8A.96.96,0,0,0,.96,23.028Zm10.555,4.8V15.352a.96.96,0,1,1,1.919,0V28.785a.96.96,0,0,1-1.919,0ZM23.028,16.312V28.785a.96.96,0,0,1-1.919,0V15.352a.96.96,0,1,1,1.919,0ZM24.947,26.77v-9.4a4.8,4.8,0,0,1,0,9.4ZM9.6,17.367v9.4a4.8,4.8,0,0,1,0-9.4Zm-7.676-.1a15.352,15.352,0,1,1,30.7,0v3.838H30.7V17.271a13.433,13.433,0,1,0-26.866,0v3.838H1.919Zm0,0" fill="#515151"/>
</svg>
