<svg id="Group_20252" data-name="Group 20252" xmlns="http://www.w3.org/2000/svg" xmlns:xlink="http://www.w3.org/1999/xlink" width="662.09" height="441.636" viewBox="0 0 662.09 441.636">
  <defs>
    <clipPath id="clip-path">
      <rect id="Rectangle_3812" data-name="Rectangle 3812" width="662.09" height="441.636" fill="none"/>
    </clipPath>
  </defs>
  <g id="Group_20243" data-name="Group 20243">
    <g id="Group_20242" data-name="Group 20242" clip-path="url(#clip-path)">
      <path id="Path_37047" data-name="Path 37047" d="M547.255,171.993H98.8a49.208,49.208,0,0,1,0-98.417H547.255a49.208,49.208,0,0,1,0,98.417" transform="translate(28.314 42.01)" fill="#cbffee"/>
      <path id="Path_37048" data-name="Path 37048" d="M510.333,210.212H66.276a37.362,37.362,0,1,1,0-74.723H510.333a37.362,37.362,0,0,1,0,74.723" transform="translate(16.509 77.36)" fill="#cbffee"/>
      <path id="Path_37049" data-name="Path 37049" d="M505.637,277.4H79.809a43.617,43.617,0,0,1,0-87.234H505.637a43.617,43.617,0,1,1,0,87.234" transform="translate(20.665 108.582)" fill="#cbffee"/>
      <path id="Path_37050" data-name="Path 37050" d="M220.935,49.208a3.143,3.143,0,0,1-3.142-3.142V22.407a3.142,3.142,0,1,1,6.284,0V46.066a3.143,3.143,0,0,1-3.142,3.142" transform="translate(124.353 11)"/>
      <path id="Path_37051" data-name="Path 37051" d="M232.772,45.58a2.926,2.926,0,0,1-.405-.027,3.138,3.138,0,0,1-2.715-3.516l1.759-13.677a3.142,3.142,0,0,1,6.232.8l-1.761,13.677a3.141,3.141,0,0,1-3.111,2.741" transform="translate(131.11 14.627)"/>
      <path id="Path_37052" data-name="Path 37052" d="M244.543,43.094a3.141,3.141,0,0,1-2.762-4.636l3.7-6.84a3.142,3.142,0,0,1,5.528,2.99l-3.7,6.838a3.146,3.146,0,0,1-2.768,1.648" transform="translate(137.834 17.113)"/>
      <path id="Path_37053" data-name="Path 37053" d="M209.739,45.58a3.14,3.14,0,0,1-3.112-2.741l-1.761-13.677a3.142,3.142,0,0,1,6.234-.8l1.758,13.677a3.138,3.138,0,0,1-2.715,3.516,2.889,2.889,0,0,1-.4.027" transform="translate(116.957 14.627)"/>
      <path id="Path_37054" data-name="Path 37054" d="M198.671,43.1a3.146,3.146,0,0,1-2.768-1.648l-3.695-6.838a3.142,3.142,0,1,1,5.528-2.99l3.7,6.84a3.141,3.141,0,0,1-2.762,4.636" transform="translate(109.529 17.112)"/>
    </g>
  </g>
  <rect id="Rectangle_3813" data-name="Rectangle 3813" width="3.142" height="13.817" transform="translate(193.597 0.002)" fill="#9ae8ce"/>
  <rect id="Rectangle_3814" data-name="Rectangle 3814" width="13.817" height="3.142" transform="translate(188.259 5.338)" fill="#9ae8ce"/>
  <rect id="Rectangle_3815" data-name="Rectangle 3815" width="3.142" height="8.502" transform="translate(137.042 45.098)" fill="#9ae8ce"/>
  <rect id="Rectangle_3816" data-name="Rectangle 3816" width="8.502" height="3.142" transform="translate(134.362 47.778)" fill="#9ae8ce"/>
  <rect id="Rectangle_3817" data-name="Rectangle 3817" width="3.142" height="8.502" transform="translate(298.992 18.297)" fill="#9ae8ce"/>
  <rect id="Rectangle_3818" data-name="Rectangle 3818" width="8.502" height="3.142" transform="translate(296.312 20.977)" fill="#9ae8ce"/>
  <rect id="Rectangle_3819" data-name="Rectangle 3819" width="3.142" height="8.501" transform="translate(414.623 53.646)" fill="#9ae8ce"/>
  <rect id="Rectangle_3820" data-name="Rectangle 3820" width="8.502" height="3.142" transform="translate(411.943 56.326)" fill="#9ae8ce"/>
  <rect id="Rectangle_3821" data-name="Rectangle 3821" width="3.142" height="14.784" transform="translate(36.146 313.652)" fill="#60c2a2"/>
  <rect id="Rectangle_3822" data-name="Rectangle 3822" width="14.786" height="3.142" transform="translate(30.324 319.473)" fill="#60c2a2"/>
  <g id="Group_20245" data-name="Group 20245">
    <g id="Group_20244" data-name="Group 20244" clip-path="url(#clip-path)">
      <path id="Path_37055" data-name="Path 37055" d="M165.607,48.507a9.519,9.519,0,1,1,9.518-9.517,9.53,9.53,0,0,1-9.518,9.517m0-15.9a6.377,6.377,0,1,0,6.377,6.378,6.386,6.386,0,0,0-6.377-6.378" transform="translate(89.121 16.827)" fill="#60c2a2"/>
      <path id="Path_37056" data-name="Path 37056" d="M116.6,59.213a9.519,9.519,0,1,1,9.519-9.519,9.532,9.532,0,0,1-9.519,9.519m0-15.9a6.377,6.377,0,1,0,6.377,6.377,6.384,6.384,0,0,0-6.377-6.377" transform="translate(61.139 22.939)" fill="#60c2a2"/>
      <path id="Path_37057" data-name="Path 37057" d="M49.366,267.986a10.813,10.813,0,1,1,10.813-10.813,10.824,10.824,0,0,1-10.813,10.813m0-18.484a7.671,7.671,0,1,0,7.671,7.671,7.679,7.679,0,0,0-7.671-7.671" transform="translate(22.014 140.664)" fill="#9ae8ce"/>
    </g>
  </g>
  <rect id="Rectangle_3824" data-name="Rectangle 3824" width="3.142" height="14.786" transform="translate(622.895 321.044)" fill="#9ae8ce"/>
  <rect id="Rectangle_3825" data-name="Rectangle 3825" width="14.784" height="3.142" transform="translate(617.074 326.866)" fill="#9ae8ce"/>
  <rect id="Rectangle_3826" data-name="Rectangle 3826" width="3.142" height="14.786" transform="translate(79.051 206.341)" fill="#9ae8ce"/>
  <rect id="Rectangle_3827" data-name="Rectangle 3827" width="14.784" height="3.142" transform="translate(73.229 212.161)" fill="#9ae8ce"/>
  <rect id="Rectangle_3828" data-name="Rectangle 3828" width="3.142" height="8.768" transform="translate(656.136 222.965)" fill="#60c2a2"/>
  <rect id="Rectangle_3829" data-name="Rectangle 3829" width="8.769" height="3.142" transform="translate(653.321 225.777)" fill="#60c2a2"/>
  <rect id="Rectangle_3830" data-name="Rectangle 3830" width="3.142" height="8.768" transform="translate(615.953 150.045)" fill="#9ae8ce"/>
  <rect id="Rectangle_3831" data-name="Rectangle 3831" width="8.768" height="3.142" transform="translate(613.139 152.857)" fill="#9ae8ce"/>
  <rect id="Rectangle_3832" data-name="Rectangle 3832" width="3.142" height="8.768" transform="translate(579.134 367.538)" fill="#9ae8ce"/>
  <rect id="Rectangle_3833" data-name="Rectangle 3833" width="8.768" height="3.142" transform="translate(576.322 370.352)" fill="#9ae8ce"/>
  <g id="Group_20247" data-name="Group 20247">
    <g id="Group_20246" data-name="Group 20246" clip-path="url(#clip-path)">
      <path id="Path_37058" data-name="Path 37058" d="M399.01,153.841a10.812,10.812,0,1,1,10.811-10.813,10.826,10.826,0,0,1-10.811,10.813m0-18.482a7.67,7.67,0,1,0,7.669,7.669,7.679,7.679,0,0,0-7.669-7.669" transform="translate(221.649 75.492)" fill="#60c2a2"/>
      <path id="Path_37059" data-name="Path 37059" d="M57.889,182.518a4.158,4.158,0,1,1-4.158-4.158,4.159,4.159,0,0,1,4.158,4.158" transform="translate(28.304 101.838)" fill="#9ae8ce"/>
    </g>
  </g>
  <path id="Path_37060" data-name="Path 37060" d="M379.392,198.973l-10.629-10.631,10.629-10.631,10.631,10.631Zm-6.187-10.631,6.187,6.186,6.188-6.186-6.188-6.186Z" transform="translate(210.553 101.468)" fill="#60c2a2"/>
  <path id="Path_37061" data-name="Path 37061" d="M4.444,234.746l6.186-6.186,6.188,6.186-6.188,6.186Zm-4.443,0L10.63,245.377l10.629-10.631L10.63,224.117Z" transform="translate(0.001 127.964)" fill="#60c2a2"/>
  <g id="Group_20249" data-name="Group 20249">
    <g id="Group_20248" data-name="Group 20248" clip-path="url(#clip-path)">
      <path id="Path_37062" data-name="Path 37062" d="M282.073,55.314c-2.2-.159-4.4-.267-6.614-.314-1.163-.033-2.325-.047-3.5-.047h-.016c-1.163,0-2.341.014-3.5.047-2.215.047-4.429.156-6.612.314h-.064a143.5,143.5,0,0,0-133.311,143.13c0,66.344,100.572,164.545,133.327,194.771,1.478,1.367,2.829,2.592,4.008,3.676a3.309,3.309,0,0,0,.267.251c.628.55,1.208,1.068,1.727,1.571.222.2.441.393.63.55.3.251.564.5.831.754.08.063.143.126.221.189.33.283.628.55.88.785q.212.189.377.33c.47.408.8.707,1,.88q.026.047.047.047a.441.441,0,0,1,.127.126.2.2,0,0,1,.047.031.173.173,0,0,1,.063-.031c.016-.016.031-.047.063-.063a.4.4,0,0,1,.126-.11,1.247,1.247,0,0,0,.157-.141v-.016h.014a1.011,1.011,0,0,1,.237-.2c.014-.017.03-.017.047-.031.063-.063.124-.126.2-.2h.016c.047-.049.11-.094.156-.141.457-.408,1.07-.958,1.808-1.6a.4.4,0,0,1,.126-.108c.171-.141.344-.3.534-.487.22-.2.456-.408.691-.613.173-.173.36-.346.55-.5.077-.063.14-.127.218-.19.141-.124.284-.266.441-.423h.016c.141-.126.3-.267.454-.393.08-.094.159-.157.251-.251h.016c.221-.2.457-.408.693-.628a.25.25,0,0,0,.047-.063h.016c.251-.251.518-.487.786-.723.063-.047.126-.11.2-.173.2-.188.408-.377.611-.581,0-.016.017,0,.017,0,.157-.126.314-.283.471-.424.126-.126.251-.236.377-.377h.016c.251-.236.5-.471.77-.691.046-.049.079-.094.126-.141,5.844-5.406,13.825-12.929,22.983-22.025.471-.471.958-.958,1.445-1.447,17.092-17.075,38.033-39.4,56.948-63.481q2.427-3.111,4.821-6.237,3.985-5.231,7.776-10.526c1.005-1.414,2.012-2.828,3-4.242s1.964-2.843,2.922-4.257q2.168-3.2,4.24-6.41,1.393-2.144,2.719-4.289c.456-.709.9-1.431,1.334-2.137,1.3-2.152,2.578-4.289,3.819-6.427,12.756-22.1,21.175-43.97,21.175-63.169A143.489,143.489,0,0,0,282.073,55.314M220.413,168.3a49.761,49.761,0,1,1,49.768,49.753A49.761,49.761,0,0,1,220.413,168.3" transform="translate(73.34 31.377)" fill="#60c2a2"/>
      <path id="Path_37063" data-name="Path 37063" d="M273.367,407.759a3.911,3.911,0,0,1-2.195-.671,3.809,3.809,0,0,1-.7-.581l-1.32-1.156c-.289-.269-.544-.493-.823-.734l-.157-.135a2.425,2.425,0,0,1-.2-.179c-.217-.2-.432-.41-.674-.614-.207-.171-.482-.407-.759-.661-.542-.526-1.071-1-1.645-1.5a5.054,5.054,0,0,1-.405-.375l-1.332-1.221c-.817-.746-1.7-1.549-2.622-2.405-31.57-29.134-134.587-129.5-134.587-197.653,0-77.062,60.162-141.654,136.965-147.048.061,0,.123,0,.184-.008,2.27-.162,4.518-.267,6.683-.314,2.38-.069,4.846-.068,7.217,0,2.184.047,4.41.152,6.78.322C360.611,58.169,420.8,122.76,420.8,199.872c0,18.267-7.3,40.181-21.7,65.132-1.258,2.166-2.543,4.325-3.86,6.5l-.368.594c-.336.544-.677,1.093-1.024,1.634-.855,1.39-1.782,2.845-2.727,4.3q-2.088,3.228-4.279,6.471c-.974,1.433-1.959,2.88-2.958,4.308-.908,1.3-1.83,2.6-2.751,3.891l-.267.375c-2.5,3.489-5.139,7.061-7.853,10.629-1.617,2.108-3.225,4.191-4.851,6.274a721.424,721.424,0,0,1-57.268,63.844l-1.439,1.441c-7.461,7.409-15.177,14.806-22.955,22-.036.041-.074.08-.113.121a3.768,3.768,0,0,1-.319.294c-.2.17-.394.35-.586.529-.024.024-.047.046-.074.068l-.162.16c-.049.047-.165.159-.214.2-.251.234-.423.388-.58.52l-.44.412c-.068.061-.181.162-.251.218-.02.019-.047.041-.075.064-.2.179-.405.357-.6.548l-.038.036c-.039.041-.082.082-.121.118l-.708.644c-.036.033-.071.064-.108.1a4.051,4.051,0,0,1-.363.331c-.09.072-.176.152-.258.225-.033.031-.069.06-.1.09-.143.14-.28.27-.415.388-.044.041-.09.077-.135.113a2.807,2.807,0,0,1-.22.189c-.039.036-.14.129-.233.22-.068.068-.138.133-.21.195-.2.176-.4.35-.594.526-.173.176-.434.413-.691.627l-.05.042c-.591.518-1.1.974-1.511,1.34l-.262.236-.11.1-.1.089,0,0c-.044.044-.09.088-.135.129-.082.074-.166.146-.256.214-.105.1-.2.188-.3.266a4.091,4.091,0,0,1-2.8,1.139m-1.745-.416,0,0Zm-.98-.688a3.357,3.357,0,0,0,.423.32l0-.006a4.337,4.337,0,0,1-.427-.314m-.024-.019,0,0,0,0m-.008-.008,0,0Zm6.433-.792,0,0,0,0m.011-.009-.008.006.008-.006m.008-.009-.008.008.008-.008m1.458-1.345-.006,0,.006,0m1-1,0,0Zm0-.008,0,.006,0-.006m-6.242-4.949c.036.03.066.058.088.075.049-.042.1-.085.149-.13a4.363,4.363,0,0,1,.456-.393c.052-.047.105-.1.163-.156.319-.3.566-.515.8-.721s.457-.43.693-.63c.063-.055.121-.1.177-.151.074-.068.148-.145.228-.226a3.88,3.88,0,0,1,.4-.352c.053-.047.107-.093.162-.138s.09-.09.138-.134c.072-.069.148-.135.226-.2l.441-.4a3.99,3.99,0,0,1,.363-.347c.237-.226.482-.443.731-.66.044-.039.09-.079.137-.116l.025-.022c.149-.138.272-.251.39-.366a4.029,4.029,0,0,1,.518-.462l.234-.22a3.717,3.717,0,0,1,.484-.459c.173-.159.346-.319.523-.473.031-.033.063-.066.1-.1,7.867-7.281,15.565-14.659,22.993-22.033l1.431-1.434a713.329,713.329,0,0,0,56.64-63.134q2.406-3.085,4.793-6.2c2.663-3.5,5.256-7,7.7-10.422l.259-.366c.911-1.28,1.822-2.562,2.718-3.844.977-1.395,1.94-2.81,2.891-4.209q2.137-3.162,4.191-6.337,1.374-2.114,2.672-4.215c.365-.57.68-1.078.991-1.58l.354-.57c1.266-2.093,2.528-4.209,3.756-6.326,13.7-23.731,20.646-44.325,20.646-61.2,0-73-56.981-134.151-129.721-139.21l-.006,0c-2.24-.16-4.339-.261-6.417-.3q-3.452-.092-6.831,0c-2.1.044-4.254.148-6.438.3-.066.006-.13.009-.195.009C190.69,65.835,133.8,126.957,133.8,199.872c0,64.966,101.083,163.293,132.064,191.885q1.379,1.272,2.589,2.377l1.414,1.293c.047.044.094.09.14.138.735.644,1.367,1.21,1.931,1.758.094.085.259.226.4.342.352.3.652.577.944.852m10.279-3.86h0Zm0,0h0Zm-11.955-171.25a53.688,53.688,0,1,1,53.68-53.678,53.748,53.748,0,0,1-53.68,53.678m0-99.521a45.833,45.833,0,1,0,45.825,45.842,45.894,45.894,0,0,0-45.825-45.842" transform="translate(71.912 29.948)"/>
      <path id="Path_37064" data-name="Path 37064" d="M273.367,407.759a3.928,3.928,0,0,1-2.226-.691,4.04,4.04,0,0,1-.66-.553l-1.327-1.166c-.284-.264-.544-.493-.831-.74l-.149-.129a2.425,2.425,0,0,1-.2-.179c-.217-.2-.434-.408-.674-.613-.222-.185-.495-.418-.768-.674-.531-.512-1.064-.987-1.64-1.492a5.321,5.321,0,0,1-.4-.374l-1.334-1.219c-.815-.748-1.694-1.549-2.62-2.405-31.57-29.132-134.587-129.489-134.587-197.65,0-77.066,60.162-141.658,136.965-147.051.061,0,.123,0,.185-.008,2.3-.165,4.55-.27,6.681-.314,1.178-.031,2.391-.049,3.588-.049,1.228,0,2.426.017,3.624.049,2.157.047,4.385.152,6.788.322C360.611,58.168,420.8,122.762,420.8,199.874c0,18.264-7.3,40.178-21.7,65.131-1.258,2.166-2.543,4.323-3.86,6.5l-.339.547c-.346.561-.694,1.125-1.053,1.681-.855,1.39-1.782,2.843-2.727,4.3q-2.088,3.228-4.281,6.472c-.973,1.433-1.959,2.88-2.958,4.309-.866,1.236-1.745,2.474-2.625,3.712l-.391.551c-2.51,3.508-5.15,7.08-7.853,10.631-1.617,2.108-3.225,4.19-4.851,6.273a721.758,721.758,0,0,1-57.268,63.846l-1.444,1.444c-7.483,7.431-15.2,14.827-22.944,21.992q-.054.061-.118.127a4.054,4.054,0,0,1-.331.3c-.19.157-.368.327-.547.493-.03.027-.429.412-.479.456-.251.237-.424.393-.583.523-.163.157-.327.309-.492.459-.063.06-.275.24-.324.281-.185.163-.369.325-.544.5-.011.009-.943.866-.976.894a4.039,4.039,0,0,1-.363.331c-.09.072-.322.281-.355.308-.138.137-.272.264-.4.38-.05.046-.278.243-.372.317-.05.044-.143.132-.233.22-.071.072-.145.14-.222.2-.2.171-.4.344-.583.517-.168.173-.419.4-.674.61l-.068.06c-.624.545-1.155,1.02-1.576,1.4,0,0-.509.46-.547.5-.083.075-.168.148-.261.217-.107.1-.206.192-.3.269a4.12,4.12,0,0,1-2.788,1.134Zm-1.759-283.874a45.833,45.833,0,1,0,45.825,45.842,45.894,45.894,0,0,0-45.825-45.842" transform="translate(71.912 29.949)" fill="#60c2a2"/>
      <path id="Path_37065" data-name="Path 37065" d="M274.81,57.808c1.178,0,2.341.014,3.5.047,2.217.047,4.414.157,6.614.314A143.489,143.489,0,0,1,418.3,201.3c0,19.2-8.42,41.065-21.177,63.167-1.241,2.138-2.514,4.275-3.817,6.427-.44.707-.88,1.428-1.335,2.137q-1.322,2.144-2.719,4.289-2.069,3.2-4.24,6.41c-.958,1.414-1.932,2.843-2.922,4.257s-2,2.828-3,4.242q-3.8,5.3-7.776,10.526c-1.6,2.089-3.2,4.163-4.823,6.237-18.915,24.083-39.856,46.406-56.948,63.483-.485.487-.974.974-1.445,1.445-9.159,9.1-17.139,16.621-22.983,22.025-.047.047-.078.094-.126.141-.267.22-.518.456-.77.691H284.2c-.126.141-.251.251-.377.377-.155.141-.314.3-.471.424l-.013-.006,0,.006c-.2.2-.408.393-.613.581-.079.063-.141.126-.2.173-.267.236-.534.471-.785.723h-.016a.193.193,0,0,1-.047.063c-.234.22-.471.424-.691.628h-.016c-.094.094-.173.157-.251.251-.157.126-.314.267-.454.393h-.017c-.157.157-.3.3-.44.424-.079.063-.141.126-.22.189-.189.157-.375.33-.55.5-.236.2-.47.408-.691.613-.189.189-.363.346-.534.487a.4.4,0,0,0-.126.11c-.738.644-1.349,1.194-1.807,1.6-.047.047-.11.094-.157.141h-.016c-.08.079-.141.141-.2.2-.016.016-.031.016-.047.031a1,1,0,0,0-.236.2H275.2v.016a1.151,1.151,0,0,1-.157.141.423.423,0,0,0-.126.11.264.264,0,0,0-.063.063.172.172,0,0,0-.063.031.2.2,0,0,0-.047-.031.478.478,0,0,0-.126-.126c-.016,0-.031-.016-.049-.047-.2-.173-.533-.471-1-.88-.108-.094-.236-.2-.375-.33-.253-.236-.551-.5-.881-.785-.079-.063-.141-.126-.221-.189-.267-.251-.533-.5-.831-.754-.189-.157-.408-.346-.628-.55-.518-.5-1.1-1.021-1.728-1.571-.094-.079-.173-.157-.267-.251-1.178-1.084-2.529-2.309-4.008-3.676C231.875,365.844,131.3,267.642,131.3,201.3A143.5,143.5,0,0,1,264.614,58.169h.064c2.182-.157,4.4-.267,6.612-.314,1.163-.033,2.341-.047,3.5-.047h.016m-1.775,163.1a49.76,49.76,0,1,0-49.768-49.753,49.754,49.754,0,0,0,49.768,49.753M274.81,49.953h-.016c-1.233,0-2.482.016-3.715.05-2.146.044-4.443.154-6.785.319-.082,0-.16.006-.229.011A151.356,151.356,0,0,0,123.447,201.3c0,30.235,18.874,69.2,56.1,115.829,29.321,36.726,62.558,68.838,79.758,84.713.91.84,1.78,1.637,2.591,2.377l1.326,1.216c.188.185.364.349.556.512.46.4.98.864,1.386,1.258.044.041.085.082.127.121.333.306.663.592.947.828.146.123.306.28.47.434.105.1.214.2.327.289.074.066.145.127.22.19.212.184.4.355.569.509l.149.138c.184.162.346.3.489.426l.522.457.24.212a8.02,8.02,0,0,0,1.192.969,7.954,7.954,0,0,0,9.782-.789c.1-.086.192-.167.275-.245.171-.14.335-.286.493-.438a.278.278,0,0,0,.033-.03c.06-.052.119-.1.176-.157.463-.415,1.016-.913,1.676-1.488.016-.014.033-.027.047-.041.3-.247.58-.506.867-.785.132-.119.273-.24.412-.36s.283-.255.416-.388l0,0c.094-.079.185-.154.272-.233l.166-.141c.145-.129.289-.266.44-.412l.016-.014.178-.156a7.432,7.432,0,0,0,.611-.548l.057-.05.223-.2c.16-.143.322-.289.482-.438.068-.063.132-.124.2-.189l.031-.033a.311.311,0,0,1,.033-.031c.1-.1.2-.189.3-.278.063-.05.126-.105.19-.162.088-.075.177-.152.264-.231.151-.141.3-.281.454-.426.174-.146.349-.3.522-.467l.06-.055c.09-.082.218-.2.3-.291l.129-.124c.027-.024.052-.049.077-.071.127-.119.25-.243.385-.353a7.657,7.657,0,0,0,.567-.515c.057-.057.11-.112.162-.167,7.745-7.167,15.455-14.558,22.925-21.978l.372-.372,1.092-1.093a725.607,725.607,0,0,0,57.57-64.184c1.648-2.111,3.263-4.2,4.878-6.307,2.768-3.635,5.429-7.239,7.932-10.734l.082-.116c.994-1.4,1.989-2.795,2.967-4.194,1.01-1.445,2.008-2.906,2.988-4.352,1.477-2.185,2.933-4.386,4.334-6.551,1.048-1.613,1.956-3.046,2.77-4.37.342-.531.675-1.07,1.005-1.606l.354-.567c.014-.027.031-.052.049-.079,1.409-2.327,2.682-4.471,3.89-6.551,14.762-25.575,22.24-48.149,22.24-67.113A151.347,151.347,0,0,0,285.472,50.333c-2.448-.174-4.738-.284-6.992-.331-1.188-.033-2.419-.049-3.67-.049m-1.775,163.1a41.906,41.906,0,1,1,41.9-41.9,41.952,41.952,0,0,1-41.9,41.9" transform="translate(70.485 28.522)"/>
      <path id="Path_37066" data-name="Path 37066" d="M282.12,393.214c-2.892-2.671-6.317-5.875-10.166-9.552C232.368,345.881,148.79,258.928,148.79,198.445A143.5,143.5,0,0,1,271.955,56.4c3.33-.487,6.708-.833,10.119-1.084-2.2-.157-4.4-.267-6.614-.314-1.163-.033-2.327-.047-3.5-.047h-.014c-1.164,0-2.342.014-3.5.047-2.215.047-4.429.157-6.612.314h-.064A143.5,143.5,0,0,0,128.448,198.445c0,66.342,100.572,164.543,133.327,194.769,1.477,1.367,2.829,2.592,4.008,3.676a3.309,3.309,0,0,0,.267.251c.628.55,1.208,1.068,1.727,1.571.222.2.44.393.63.55.3.251.564.5.831.754.08.063.143.126.22.189.33.283.63.55.881.785.141.126.267.236.375.33.471.408.8.707,1.005.88.017.031.031.047.047.047a.456.456,0,0,1,.126.126.19.19,0,0,1,.049.031.154.154,0,0,1,.063-.031.216.216,0,0,1,.063-.063.388.388,0,0,1,.126-.11,1.249,1.249,0,0,0,.156-.141l.016-.016c.064-.047.141-.126.236-.2.016-.017.031-.017.049-.031.063-.063.141-.126.218-.2.049-.047.112-.094.157-.141.457-.408,1.07-.958,1.807-1.6.031-.03.079-.061.126-.108a7.165,7.165,0,0,0,.534-.487c.222-.2.456-.408.693-.613.173-.157.36-.314.548-.5.079-.063.141-.126.22-.189.284-.267.6-.534.911-.817.08-.079.173-.173.267-.251.221-.2.457-.408.691-.628a.2.2,0,0,0,.063-.063c.253-.22.52-.471.786-.723.063-.047.127-.11.2-.173.2-.188.41-.377.63-.581.156-.126.314-.283.471-.424l1.163-1.068Z" transform="translate(73.34 31.377)" fill="#fff"/>
      <path id="Path_37067" data-name="Path 37067" d="M233.621,55.314c-2.2-.159-4.4-.267-6.614-.314-1.163-.033-2.325-.047-3.5-.047h-.016c-1.163,0-2.341.014-3.5.047-2.215.047-4.429.156-6.612.314,3.409.251,6.787.6,10.133,1.082A143.5,143.5,0,0,1,346.652,198.444c0,60.468-83.56,147.4-123.148,185.219-3.849,3.66-7.274,6.881-10.181,9.552l-.016.016c1.494,1.367,2.829,2.592,4.023,3.66a3.314,3.314,0,0,0,.267.251c.611.566,1.194,1.084,1.727,1.571.222.2.441.393.63.548.3.253.564.5.831.756.08.063.143.126.222.189.33.283.628.55.88.785.141.126.267.234.377.33.47.424.8.723,1,.88.017.031.033.047.047.047a1.15,1.15,0,0,0,.127.126.231.231,0,0,1,.047.03.2.2,0,0,1,.063-.03c.016-.033.031-.063.063-.063a.4.4,0,0,1,.126-.11l.157-.157h.014a1.011,1.011,0,0,1,.237-.2,3.046,3.046,0,0,1,.251-.236h.016a.439.439,0,0,1,.156-.141c.457-.408,1.07-.96,1.808-1.6a.4.4,0,0,1,.126-.108c.171-.173.344-.33.534-.489.22-.2.456-.407.691-.611.173-.174.36-.346.55-.5.218-.2.44-.393.66-.611h.016c.22-.22.454-.426.705-.644h.016c.237-.236.489-.456.74-.691h.016c.251-.251.518-.487.786-.723.267-.251.534-.5.815-.754,0-.016.017,0,.017,0l.848-.8h.016l.754-.707a1.13,1.13,0,0,0,.141-.126c5.844-5.406,13.825-12.929,22.983-22.025.471-.487.958-.974,1.445-1.447,17.092-17.092,38.018-39.4,56.948-63.481q2.427-3.111,4.821-6.238c2.641-3.486,5.247-6.989,7.776-10.524,1.005-1.414,2.012-2.829,3-4.242s1.964-2.845,2.922-4.257q2.168-3.2,4.24-6.41,1.393-2.144,2.719-4.289c.456-.709.9-1.431,1.334-2.137,1.3-2.152,2.578-4.289,3.819-6.427,12.756-22.1,21.175-43.97,21.175-63.169A143.489,143.489,0,0,0,233.621,55.314" transform="translate(121.792 31.377)" fill="#9ae8ce"/>
      <path id="Path_37068" data-name="Path 37068" d="M247.63,134.819a21.245,21.245,0,1,1-21.244-21.244,21.243,21.243,0,0,1,21.244,21.244" transform="translate(117.129 64.848)" fill="#60c2a2"/>
      <path id="Path_37069" data-name="Path 37069" d="M227.812,161.418a25.172,25.172,0,1,1,25.172-25.172,25.2,25.2,0,0,1-25.172,25.172m0-42.488a17.317,17.317,0,1,0,17.317,17.317,17.337,17.337,0,0,0-17.317-17.317" transform="translate(115.702 63.421)"/>
    </g>
  </g>
</svg>
