<svg id="Group_20251" data-name="Group 20251" xmlns="http://www.w3.org/2000/svg" xmlns:xlink="http://www.w3.org/1999/xlink" width="733.483" height="472.27" viewBox="0 0 733.483 472.27">
  <defs>
    <clipPath id="clip-path">
      <rect id="Rectangle_3765" data-name="Rectangle 3765" width="733.483" height="472.269" fill="none"/>
    </clipPath>
  </defs>
  <g id="Group_20220" data-name="Group 20220">
    <g id="Group_20219" data-name="Group 20219" clip-path="url(#clip-path)">
      <path id="Path_36978" data-name="Path 36978" d="M529.819,202.035H56.63a51.922,51.922,0,0,1,0-103.844H529.819a51.922,51.922,0,1,1,0,103.844" transform="translate(3.097 64.571)" fill="#cbffee"/>
    </g>
  </g>
  <rect id="Rectangle_3766" data-name="Rectangle 3766" width="320.6" height="81.662" transform="translate(186.827 133.023)" fill="#9ae8ce"/>
  <path id="Path_36979" data-name="Path 36979" d="M112,79.3v79.936h12.482l31.592-47.712L122.144,77.915Z" transform="translate(73.654 51.237)" fill="#60c2a2"/>
  <path id="Path_36980" data-name="Path 36980" d="M326.429,79.3v79.936h-12.48l-31.592-47.712,33.933-33.608Z" transform="translate(185.678 51.237)" fill="#60c2a2"/>
  <g id="Group_20222" data-name="Group 20222">
    <g id="Group_20221" data-name="Group 20221" clip-path="url(#clip-path)">
      <path id="Path_36981" data-name="Path 36981" d="M436.6,165.2H116V83.538H436.6Zm0-89.95H116a8.288,8.288,0,0,0-8.288,8.288V165.2A8.29,8.29,0,0,0,116,173.488H436.6a8.29,8.29,0,0,0,8.288-8.288V83.538A8.288,8.288,0,0,0,436.6,75.25" transform="translate(70.83 49.485)"/>
      <path id="Path_36982" data-name="Path 36982" d="M566.447,239.684H97.9a39.423,39.423,0,0,1,0-78.846H566.447a39.423,39.423,0,1,1,0,78.846" transform="translate(38.456 105.768)" fill="#cbffee"/>
      <path id="Path_36983" data-name="Path 36983" d="M534.393,307H85.085a46.023,46.023,0,0,1,0-92.047H534.393a46.023,46.023,0,1,1,0,92.047" transform="translate(25.688 141.355)" fill="#cbffee"/>
      <path id="Path_36984" data-name="Path 36984" d="M314.1,166.354H282.122a4.142,4.142,0,0,1-4.144-4.144V113.031a4.086,4.086,0,0,1,.06-.779v0c.018-.091.036-.182.058-.273a4.128,4.128,0,0,1,1.169-2.014L312.748,76.92a4.143,4.143,0,1,1,5.82,5.9L287.437,113.54l30.137,46.415a4.144,4.144,0,0,1-3.478,6.4m-27.83-8.288h20.2l-20.2-31.112Z" transform="translate(182.799 49.797)"/>
      <path id="Path_36985" data-name="Path 36985" d="M152.295,166.01H120.3a4.144,4.144,0,0,1-3.476-6.4l30.127-46.375L115.889,83.382a4.144,4.144,0,1,1,5.744-5.976l33.527,32.216.065.065,0,0h0a4.16,4.16,0,0,1,1.21,2.793c0,.055,0,.109,0,.167v49.218a4.143,4.143,0,0,1-4.144,4.144m-24.357-8.288h20.213V126.605Z" transform="translate(75.372 50.142)"/>
      <path id="Path_36986" data-name="Path 36986" d="M407.082,360.067H126.221a19.892,19.892,0,0,1-19.891-19.891V129.514H426.973V340.176a19.891,19.891,0,0,1-19.891,19.891" transform="translate(69.923 85.169)" fill="#f8f8f8"/>
      <path id="Path_36987" data-name="Path 36987" d="M414.539,360.067H138.012a19.891,19.891,0,0,1-19.891-19.891V129.514H434.43V340.176a19.891,19.891,0,0,1-19.891,19.891" transform="translate(77.677 85.169)" fill="#9ae8ce"/>
      <path id="Path_36988" data-name="Path 36988" d="M399.328,360.067H138.013a19.891,19.891,0,0,1-19.891-19.891V129.514h301.1V340.176a19.891,19.891,0,0,1-19.891,19.891" transform="translate(77.677 85.169)" fill="#60c2a2"/>
      <path id="Path_36989" data-name="Path 36989" d="M239.384,266.178a73.848,73.848,0,0,1-73.763-73.763V158.482a4.144,4.144,0,1,1,8.288,0v33.933a65.475,65.475,0,1,0,130.951,0V158.482a4.144,4.144,0,1,1,8.288,0v33.933a73.848,73.848,0,0,1-73.763,73.763" transform="translate(108.913 101.493)"/>
      <path id="Path_36990" data-name="Path 36990" d="M197.547,168.84A4.143,4.143,0,0,1,193.4,164.7a15.747,15.747,0,1,0-31.494,0,4.144,4.144,0,1,1-8.288,0,24.035,24.035,0,0,1,48.07,0,4.143,4.143,0,0,1-4.144,4.144" transform="translate(101.022 92.499)"/>
      <path id="Path_36991" data-name="Path 36991" d="M281.547,168.84A4.143,4.143,0,0,1,277.4,164.7a15.747,15.747,0,1,0-31.494,0,4.144,4.144,0,1,1-8.288,0,24.035,24.035,0,0,1,48.07,0,4.143,4.143,0,0,1-4.144,4.144" transform="translate(156.26 92.499)"/>
      <path id="Path_36992" data-name="Path 36992" d="M452.041,132.8V343.464a28.2,28.2,0,0,1-28.179,28.179H132.123a28.209,28.209,0,0,1-28.179-28.179V224.15a4.144,4.144,0,1,1,8.288,0V343.464a19.9,19.9,0,0,0,19.891,19.891H423.861a19.886,19.886,0,0,0,19.891-19.891V132.8H112.232v57.734a4.144,4.144,0,1,1-8.288,0V132.8a8.291,8.291,0,0,1,8.288-8.288H443.753a8.279,8.279,0,0,1,8.288,8.288" transform="translate(68.354 81.879)"/>
      <path id="Path_36993" data-name="Path 36993" d="M112.383,176.146a4.216,4.216,0,0,1-.2,1.293,4.335,4.335,0,0,1-8.469-1.293,4.331,4.331,0,0,1,8.469-1.293,4.132,4.132,0,0,1,.2,1.293" transform="translate(68.203 112.978)"/>
      <path id="Path_36994" data-name="Path 36994" d="M210.73,75.645a3.316,3.316,0,0,1-3.315-3.315V47.366a3.315,3.315,0,0,1,6.63,0V72.33a3.316,3.316,0,0,1-3.315,3.315" transform="translate(136.397 28.968)"/>
      <path id="Path_36995" data-name="Path 36995" d="M222.568,71.468a3.089,3.089,0,0,1-.428-.028,3.311,3.311,0,0,1-2.864-3.71L221.133,53.3a3.315,3.315,0,0,1,6.576.845L225.85,68.576a3.314,3.314,0,0,1-3.282,2.893" transform="translate(144.178 33.145)"/>
      <path id="Path_36996" data-name="Path 36996" d="M234.337,68.6a3.315,3.315,0,0,1-2.914-4.892l3.9-7.217a3.316,3.316,0,0,1,5.833,3.154l-3.9,7.216a3.32,3.32,0,0,1-2.921,1.739" transform="translate(151.923 36.009)"/>
      <path id="Path_36997" data-name="Path 36997" d="M199.629,71.468a3.314,3.314,0,0,1-3.282-2.893l-1.858-14.431a3.315,3.315,0,0,1,6.576-.845l1.857,14.431a3.311,3.311,0,0,1-2.864,3.71,3.09,3.09,0,0,1-.428.028" transform="translate(127.879 33.145)"/>
      <path id="Path_36998" data-name="Path 36998" d="M188.671,68.6a3.32,3.32,0,0,1-2.921-1.739l-3.9-7.216a3.316,3.316,0,0,1,5.833-3.154l3.9,7.217a3.315,3.315,0,0,1-2.914,4.892" transform="translate(119.324 36.008)"/>
      <rect id="Rectangle_3767" data-name="Rectangle 3767" width="3.315" height="14.577" transform="translate(79.023 57.333)" fill="#9ae8ce"/>
      <rect id="Rectangle_3768" data-name="Rectangle 3768" width="14.577" height="3.315" transform="translate(73.39 62.964)" fill="#9ae8ce"/>
      <rect id="Rectangle_3769" data-name="Rectangle 3769" width="3.315" height="8.971" transform="translate(138.697 104.916)" fill="#9ae8ce"/>
      <rect id="Rectangle_3770" data-name="Rectangle 3770" width="8.969" height="3.315" transform="translate(135.869 107.744)" fill="#9ae8ce"/>
      <rect id="Rectangle_3771" data-name="Rectangle 3771" width="3.315" height="8.969" transform="translate(106.713)" fill="#9ae8ce"/>
      <rect id="Rectangle_3772" data-name="Rectangle 3772" width="8.969" height="3.315" transform="translate(103.887 2.828)" fill="#9ae8ce"/>
      <rect id="Rectangle_3773" data-name="Rectangle 3773" width="3.315" height="8.969" transform="translate(281.64 11.505)" fill="#9ae8ce"/>
      <rect id="Rectangle_3774" data-name="Rectangle 3774" width="8.969" height="3.315" transform="translate(278.812 14.332)" fill="#9ae8ce"/>
      <rect id="Rectangle_3775" data-name="Rectangle 3775" width="3.315" height="15.601" transform="translate(6.143 429.076)" fill="#60c2a2"/>
      <rect id="Rectangle_3776" data-name="Rectangle 3776" width="15.601" height="3.315" transform="translate(0 435.217)" fill="#60c2a2"/>
      <path id="Path_36999" data-name="Path 36999" d="M98.539,37.91a10.043,10.043,0,1,1,10.043-10.043A10.056,10.056,0,0,1,98.539,37.91m0-16.772a6.728,6.728,0,1,0,6.728,6.728,6.735,6.735,0,0,0-6.728-6.728" transform="translate(58.195 11.72)" fill="#60c2a2"/>
      <path id="Path_37000" data-name="Path 37000" d="M147.548,48.614A10.043,10.043,0,1,1,157.59,38.572a10.055,10.055,0,0,1-10.042,10.042m0-16.77a6.727,6.727,0,1,0,6.727,6.728,6.735,6.735,0,0,0-6.727-6.728" transform="translate(90.422 18.761)" fill="#60c2a2"/>
      <path id="Path_37001" data-name="Path 37001" d="M39.585,293.963a11.408,11.408,0,1,1,11.409-11.408,11.42,11.42,0,0,1-11.409,11.408m0-19.5a8.093,8.093,0,1,0,8.094,8.094,8.1,8.1,0,0,0-8.094-8.094" transform="translate(18.529 178.307)" fill="#9ae8ce"/>
      <rect id="Rectangle_3777" data-name="Rectangle 3777" width="3.315" height="15.601" transform="translate(714.987 333.324)" fill="#9ae8ce"/>
      <rect id="Rectangle_3778" data-name="Rectangle 3778" width="15.601" height="3.315" transform="translate(708.844 339.467)" fill="#9ae8ce"/>
      <rect id="Rectangle_3779" data-name="Rectangle 3779" width="3.315" height="9.251" transform="translate(727.201 267.855)" fill="#60c2a2"/>
      <rect id="Rectangle_3780" data-name="Rectangle 3780" width="9.251" height="3.315" transform="translate(724.232 270.823)" fill="#60c2a2"/>
      <rect id="Rectangle_3781" data-name="Rectangle 3781" width="3.315" height="9.251" transform="translate(632.717 199.406)" fill="#60c2a2"/>
      <rect id="Rectangle_3782" data-name="Rectangle 3782" width="9.251" height="3.315" transform="translate(629.748 202.374)" fill="#60c2a2"/>
      <rect id="Rectangle_3783" data-name="Rectangle 3783" width="3.315" height="9.251" transform="translate(684.201 381.937)" fill="#9ae8ce"/>
      <rect id="Rectangle_3784" data-name="Rectangle 3784" width="9.251" height="3.315" transform="translate(681.234 384.905)" fill="#9ae8ce"/>
      <path id="Path_37002" data-name="Path 37002" d="M406.782,171.644a11.408,11.408,0,1,1,11.408-11.409,11.423,11.423,0,0,1-11.408,11.409m0-19.5a8.093,8.093,0,1,0,8.092,8.092,8.1,8.1,0,0,0-8.092-8.092" transform="translate(259.999 97.869)" fill="#60c2a2"/>
      <path id="Path_37003" data-name="Path 37003" d="M61.129,263.535a4.389,4.389,0,1,1-4.388-4.388,4.389,4.389,0,0,1,4.388,4.388" transform="translate(34.427 170.416)" fill="#9ae8ce"/>
      <path id="Path_37004" data-name="Path 37004" d="M387.155,216.755,375.94,205.538l11.215-11.217,11.217,11.217Zm-6.528-11.217,6.528,6.528,6.529-6.528-6.529-6.528Z" transform="translate(247.219 127.786)" fill="#60c2a2"/>
    </g>
  </g>
</svg>
