<svg id="Group_20253" data-name="Group 20253" xmlns="http://www.w3.org/2000/svg" xmlns:xlink="http://www.w3.org/1999/xlink" width="599.609" height="434.823" viewBox="0 0 599.609 434.823">
  <defs>
    <clipPath id="clip-path">
      <rect id="Rectangle_3806" data-name="Rectangle 3806" width="599.609" height="434.824" fill="none"/>
    </clipPath>
  </defs>
  <g id="Group_20224" data-name="Group 20224" clip-path="url(#clip-path)">
    <path id="Path_37005" data-name="Path 37005" d="M502.078,185.828H78.616a46.465,46.465,0,1,1,0-92.931H502.078a46.465,46.465,0,0,1,0,92.931" transform="translate(15.541 44.907)" fill="#cbffee"/>
    <path id="Path_37006" data-name="Path 37006" d="M123.684,161.2a3.708,3.708,0,0,1-3.709-3.708V84.407a3.708,3.708,0,0,1,3.709-3.708H391.824A22.5,22.5,0,0,1,414.3,103.176v35.542A22.5,22.5,0,0,1,391.824,161.2Z" transform="translate(57.997 39.01)" fill="#60c2a2"/>
    <path id="Path_37007" data-name="Path 37007" d="M393.032,85.615A18.769,18.769,0,0,1,411.8,104.383v35.544A18.768,18.768,0,0,1,393.032,158.7H124.891V85.615H393.032m0-7.417H124.891a7.417,7.417,0,0,0-7.417,7.417V158.7a7.418,7.418,0,0,0,7.417,7.417H393.032a26.215,26.215,0,0,0,26.185-26.185V104.383A26.215,26.215,0,0,0,393.032,78.2" transform="translate(56.788 37.801)"/>
    <path id="Path_37008" data-name="Path 37008" d="M466.059,232.437H46.753a35.279,35.279,0,1,1,0-70.558H466.059a35.279,35.279,0,1,1,0,70.558" transform="translate(5.546 78.253)" fill="#cbffee"/>
    <path id="Path_37009" data-name="Path 37009" d="M462.227,292.033H60.136a41.186,41.186,0,0,1,0-82.372H462.227a41.186,41.186,0,1,1,0,82.372" transform="translate(9.161 101.352)" fill="#cbffee"/>
    <path id="Path_37010" data-name="Path 37010" d="M203.518,67.029a2.968,2.968,0,0,1-2.967-2.967V41.724a2.967,2.967,0,1,1,5.934,0V64.062a2.968,2.968,0,0,1-2.967,2.967" transform="translate(96.948 18.735)"/>
    <path id="Path_37011" data-name="Path 37011" d="M215.355,63.959a2.764,2.764,0,0,1-.383-.025,2.963,2.963,0,0,1-2.563-3.32L214.071,47.7a2.967,2.967,0,0,1,5.885.757L218.292,61.37a2.966,2.966,0,0,1-2.937,2.589" transform="translate(102.668 21.806)"/>
    <path id="Path_37012" data-name="Path 37012" d="M227.125,61.853a2.966,2.966,0,0,1-2.608-4.378l3.49-6.457a2.967,2.967,0,0,1,5.22,2.823L229.739,60.3a2.971,2.971,0,0,1-2.614,1.556" transform="translate(108.361 23.911)"/>
    <path id="Path_37013" data-name="Path 37013" d="M192.222,63.959a2.964,2.964,0,0,1-2.937-2.589l-1.663-12.915a2.967,2.967,0,0,1,5.885-.757l1.661,12.915a2.963,2.963,0,0,1-2.563,3.32,2.764,2.764,0,0,1-.383.025" transform="translate(90.686 21.806)"/>
    <path id="Path_37014" data-name="Path 37014" d="M181.047,61.854a2.971,2.971,0,0,1-2.614-1.556l-3.489-6.456a2.967,2.967,0,0,1,5.22-2.823l3.49,6.457a2.966,2.966,0,0,1-2.608,4.378" transform="translate(84.397 23.911)"/>
    <rect id="Rectangle_3786" data-name="Rectangle 3786" width="2.967" height="13.045" transform="translate(517.016 51.308)" fill="#9ae8ce"/>
    <rect id="Rectangle_3787" data-name="Rectangle 3787" width="13.045" height="2.967" transform="translate(511.979 56.347)" fill="#9ae8ce"/>
    <rect id="Rectangle_3788" data-name="Rectangle 3788" width="2.967" height="8.028" transform="translate(463.614 93.891)" fill="#9ae8ce"/>
    <rect id="Rectangle_3789" data-name="Rectangle 3789" width="8.027" height="2.967" transform="translate(461.084 96.421)" fill="#9ae8ce"/>
    <rect id="Rectangle_3790" data-name="Rectangle 3790" width="2.967" height="8.027" transform="translate(492.236)" fill="#9ae8ce"/>
    <rect id="Rectangle_3791" data-name="Rectangle 3791" width="8.027" height="2.967" transform="translate(489.705 2.531)" fill="#9ae8ce"/>
    <rect id="Rectangle_3792" data-name="Rectangle 3792" width="2.967" height="8.028" transform="translate(335.692 10.295)" fill="#9ae8ce"/>
    <rect id="Rectangle_3793" data-name="Rectangle 3793" width="8.027" height="2.967" transform="translate(333.163 12.826)" fill="#9ae8ce"/>
    <rect id="Rectangle_3794" data-name="Rectangle 3794" width="2.967" height="13.962" transform="translate(8.555 325.083)" fill="#60c2a2"/>
    <rect id="Rectangle_3795" data-name="Rectangle 3795" width="13.962" height="2.967" transform="translate(3.057 330.58)" fill="#60c2a2"/>
    <path id="Path_37015" data-name="Path 37015" d="M306.58,35.8a8.987,8.987,0,1,1,8.988-8.986A9,9,0,0,1,306.58,35.8m0-15.008a6.02,6.02,0,1,0,6.021,6.021,6.027,6.027,0,0,0-6.021-6.021" transform="translate(143.858 8.616)" fill="#60c2a2"/>
    <path id="Path_37016" data-name="Path 37016" d="M257.573,46.5a8.987,8.987,0,1,1,8.988-8.986,9,9,0,0,1-8.988,8.986m0-15.008a6.02,6.02,0,1,0,6.021,6.021,6.027,6.027,0,0,0-6.021-6.021" transform="translate(120.168 13.791)" fill="#60c2a2"/>
    <path id="Path_37017" data-name="Path 37017" d="M31.521,286.271a10.21,10.21,0,1,1,10.21-10.209,10.22,10.22,0,0,1-10.21,10.209m0-17.452a7.243,7.243,0,1,0,7.243,7.243,7.251,7.251,0,0,0-7.243-7.243" transform="translate(10.302 128.515)" fill="#9ae8ce"/>
    <rect id="Rectangle_3796" data-name="Rectangle 3796" width="2.967" height="13.962" transform="translate(562.6 332.064)" fill="#9ae8ce"/>
    <rect id="Rectangle_3797" data-name="Rectangle 3797" width="13.962" height="2.967" transform="translate(557.102 337.561)" fill="#9ae8ce"/>
    <rect id="Rectangle_3798" data-name="Rectangle 3798" width="2.967" height="13.962" transform="translate(49.067 223.754)" fill="#9ae8ce"/>
    <rect id="Rectangle_3799" data-name="Rectangle 3799" width="13.962" height="2.967" transform="translate(43.569 229.252)" fill="#9ae8ce"/>
    <rect id="Rectangle_3800" data-name="Rectangle 3800" width="2.967" height="8.279" transform="translate(593.986 239.453)" fill="#60c2a2"/>
    <rect id="Rectangle_3801" data-name="Rectangle 3801" width="8.279" height="2.967" transform="translate(591.331 242.108)" fill="#60c2a2"/>
    <rect id="Rectangle_3802" data-name="Rectangle 3802" width="2.967" height="8.279" transform="translate(556.043 170.596)" fill="#9ae8ce"/>
    <rect id="Rectangle_3803" data-name="Rectangle 3803" width="8.28" height="2.967" transform="translate(553.386 173.253)" fill="#9ae8ce"/>
    <rect id="Rectangle_3804" data-name="Rectangle 3804" width="2.967" height="8.279" transform="translate(521.277 375.966)" fill="#9ae8ce"/>
    <rect id="Rectangle_3805" data-name="Rectangle 3805" width="8.279" height="2.967" transform="translate(518.62 378.622)" fill="#9ae8ce"/>
    <path id="Path_37018" data-name="Path 37018" d="M381.164,172.128a10.21,10.21,0,1,1,10.21-10.209,10.22,10.22,0,0,1-10.21,10.209m0-17.452a7.243,7.243,0,1,0,7.243,7.243,7.251,7.251,0,0,0-7.243-7.243" transform="translate(179.322 73.337)" fill="#60c2a2"/>
    <path id="Path_37019" data-name="Path 37019" d="M40.182,201.78a3.927,3.927,0,1,1-3.925-3.927,3.925,3.925,0,0,1,3.925,3.927" transform="translate(15.628 95.643)" fill="#9ae8ce"/>
    <path id="Path_37020" data-name="Path 37020" d="M361.558,217.281l-10.037-10.04,10.037-10.04,10.04,10.04Zm-5.842-10.04,5.842,5.843,5.845-5.843-5.845-5.842Z" transform="translate(169.928 95.329)" fill="#60c2a2"/>
    <path id="Path_37021" data-name="Path 37021" d="M10.037,147.961,0,137.921l10.037-10.038,10.038,10.038ZM4.2,137.921l5.842,5.843,5.843-5.843-5.843-5.842Z" transform="translate(0 61.819)" fill="#60c2a2"/>
    <path id="Path_37022" data-name="Path 37022" d="M112.707,392.105a26.021,26.021,0,0,1-25.992-25.992V106.69A26.022,26.022,0,0,1,112.707,80.7H377.332a3.708,3.708,0,0,1,3.708,3.708V366.113a26.022,26.022,0,0,1-25.992,25.992Z" transform="translate(41.919 39.01)" fill="#9ae8ce"/>
    <path id="Path_37023" data-name="Path 37023" d="M378.541,85.615v281.7a22.285,22.285,0,0,1-22.282,22.285H113.916A22.285,22.285,0,0,1,91.632,367.32V107.9a22.285,22.285,0,0,1,22.284-22.284H378.541m0-7.417H113.916a29.735,29.735,0,0,0-29.7,29.7V367.32a29.735,29.735,0,0,0,29.7,29.7H356.258a29.734,29.734,0,0,0,29.7-29.7V85.615a7.416,7.416,0,0,0-7.417-7.417" transform="translate(40.71 37.801)"/>
    <path id="Path_37024" data-name="Path 37024" d="M129.254,387.19H111.5a22.28,22.28,0,0,1-22.279-22.281V105.492a22.285,22.285,0,0,1,22.279-22.3h17.758a22.285,22.285,0,0,0-22.281,22.3V364.909a22.28,22.28,0,0,0,22.281,22.281" transform="translate(43.128 40.217)" fill="#f8f8f8"/>
    <path id="Path_37025" data-name="Path 37025" d="M256.845,392.107a3.709,3.709,0,0,1,0-7.417,18.594,18.594,0,0,0,18.574-18.574V84.4a3.708,3.708,0,0,1,3.708-3.709h17.755a3.708,3.708,0,0,1,3.708,3.709V366.116A26.018,26.018,0,0,1,274.6,392.107Z" transform="translate(122.368 39.008)" fill="#9ae8ce"/>
    <path id="Path_37026" data-name="Path 37026" d="M298.091,85.612V367.326a22.291,22.291,0,0,1-22.281,22.281H258.054a22.291,22.291,0,0,0,22.281-22.281V85.612h17.756m0-7.417H280.335a7.417,7.417,0,0,0-7.417,7.417V367.326a14.881,14.881,0,0,1-14.864,14.864,7.417,7.417,0,1,0,0,14.834H275.81a29.731,29.731,0,0,0,29.7-29.7V85.612a7.416,7.416,0,0,0-7.417-7.417" transform="translate(121.16 37.8)"/>
    <path id="Path_37027" data-name="Path 37027" d="M357.207,83.195V364.909c0,12.3-10.261,22.281-22.9,22.281H121.734c-12.655,0-22.9-9.983-22.9-22.281V105.491c0-12.314,10.244-22.3,22.9-22.3Z" transform="translate(47.778 40.217)" fill="#60c2a2"/>
    <path id="Path_37028" data-name="Path 37028" d="M293.354,128.158H157.842a2.967,2.967,0,1,1,0-5.934H293.354a2.967,2.967,0,0,1,0,5.934" transform="translate(74.868 59.084)"/>
    <path id="Path_37029" data-name="Path 37029" d="M293.354,143.938H157.842a2.967,2.967,0,1,1,0-5.934H293.354a2.967,2.967,0,0,1,0,5.934" transform="translate(74.868 66.712)"/>
    <path id="Path_37030" data-name="Path 37030" d="M293.354,189.809H157.842a2.967,2.967,0,1,1,0-5.934H293.354a2.967,2.967,0,0,1,0,5.934" transform="translate(74.868 88.886)"/>
    <path id="Path_37031" data-name="Path 37031" d="M293.354,205.588H157.842a2.967,2.967,0,1,1,0-5.934H293.354a2.967,2.967,0,0,1,0,5.934" transform="translate(74.868 96.514)"/>
    <path id="Path_37032" data-name="Path 37032" d="M293.354,249.6H157.842a2.967,2.967,0,1,1,0-5.934H293.354a2.967,2.967,0,0,1,0,5.934" transform="translate(74.868 117.791)"/>
    <path id="Path_37033" data-name="Path 37033" d="M293.354,265.382H157.842a2.967,2.967,0,1,1,0-5.934H293.354a2.967,2.967,0,0,1,0,5.934" transform="translate(74.868 125.419)"/>
    <path id="Path_37034" data-name="Path 37034" d="M151.349,155.042H123.077a2.967,2.967,0,0,1-2.967-2.967V123.95a2.968,2.968,0,0,1,2.967-2.967h28.272a2.968,2.968,0,0,1,2.967,2.967v28.125a2.967,2.967,0,0,1-2.967,2.967m-25.305-5.934h22.339V126.917H126.044Z" transform="translate(58.062 58.484)"/>
    <path id="Path_37035" data-name="Path 37035" d="M151.349,217.087H123.077a2.967,2.967,0,0,1-2.967-2.967V186a2.968,2.968,0,0,1,2.967-2.967h28.272A2.968,2.968,0,0,1,154.316,186V214.12a2.967,2.967,0,0,1-2.967,2.967m-25.305-5.934h22.339v-22.19H126.044Z" transform="translate(58.062 88.477)"/>
    <path id="Path_37036" data-name="Path 37036" d="M151.349,276.137H123.077a2.968,2.968,0,0,1-2.967-2.967V245.046a2.967,2.967,0,0,1,2.967-2.967h28.272a2.967,2.967,0,0,1,2.967,2.967V273.17a2.968,2.968,0,0,1-2.967,2.967M126.044,270.2h22.339v-22.19H126.044Z" transform="translate(58.062 117.023)"/>
  </g>
</svg>
