<svg xmlns="http://www.w3.org/2000/svg" width="53.925" height="62.221" viewBox="0 0 53.925 62.221">
  <path id="hoodie" d="M94.88,22.762l-3.493-1.05A7.27,7.27,0,0,0,84.3,16H65.629a7.27,7.27,0,0,0-7.091,5.712l-3.493,1.05A9.32,9.32,0,0,0,48,31.811V70.962a3.1,3.1,0,0,0,1.037,2.316v3.906a1.037,1.037,0,0,0,1.037,1.037H56.3a1.037,1.037,0,0,0,1.037-1.037V73.278a3.1,3.1,0,0,0,1.035-2.248,5.012,5.012,0,0,0,2.076.889V75.11a1.037,1.037,0,0,0,1.037,1.037H88.444a1.037,1.037,0,0,0,1.037-1.037V71.919a5.012,5.012,0,0,0,2.076-.889,3.1,3.1,0,0,0,1.035,2.248v3.906a1.037,1.037,0,0,0,1.037,1.037h6.222a1.037,1.037,0,0,0,1.037-1.037V73.278a3.1,3.1,0,0,0,1.037-2.316V31.811A9.32,9.32,0,0,0,94.88,22.762Zm-10-4.655a5.2,5.2,0,0,1,4.57,4.615L77.988,30.365ZM69.736,22.222H80.189l-5.227,9.292Zm11.62-2.074H68.569L67.4,18.074h15.12ZM65.041,18.107l6.9,12.259L60.472,22.722A5.2,5.2,0,0,1,65.041,18.107Zm-9.782,58.04H51.111V74.073h4.148Zm32.147-2.074H62.518V72H87.406Zm1.184-4.148H61.334a2.967,2.967,0,0,1-2.964-2.964V38.814a1.037,1.037,0,1,0-2.074,0V70.962A1.038,1.038,0,0,1,55.259,72H51.111a1.038,1.038,0,0,1-1.037-1.037V31.811a7.249,7.249,0,0,1,5.5-7.042l.047-.013,2.95-.887a1.035,1.035,0,0,0,.263.253L71.851,32.8V47.11a1.037,1.037,0,0,0,2.074,0V34.184l.462.308a1.037,1.037,0,0,0,1.151,0L76,34.184V47.11a1.037,1.037,0,0,0,2.074,0V32.8l13.019-8.68a1.035,1.035,0,0,0,.263-.253l2.95.887.047.013a7.249,7.249,0,0,1,5.5,7.042V70.962A1.038,1.038,0,0,1,98.814,72H94.666a1.038,1.038,0,0,1-1.037-1.037V38.814a1.037,1.037,0,1,0-2.074,0V66.961a2.967,2.967,0,0,1-2.964,2.964Zm10.223,6.222H94.666V74.073h4.148Z" transform="translate(-48 -16)" fill="#515151"/>
</svg>
