<svg xmlns="http://www.w3.org/2000/svg" xmlns:xlink="http://www.w3.org/1999/xlink" width="661" height="661" viewBox="0 0 661 661">
  <defs>
    <clipPath id="clip-path">
      <path id="Path_6" data-name="Path 6" d="M718.986,1230.245l-142-47.815V1021.6l142,47.815Z" transform="translate(-576.99 -1021.599)" fill="#c78249"/>
    </clipPath>
    <clipPath id="clip-path-2">
      <path id="Path_5" data-name="Path 5" d="M441.9,1050.483l-68.186,40.811,157.032,58.151,51.767-60.639Z" transform="translate(-373.718 -1050.483)" fill="#c78249"/>
    </clipPath>
    <clipPath id="clip-path-3">
      <path id="Path_9" data-name="Path 9" d="M1009.059,1230.245l142-47.815V1021.6l-142,47.815Z" transform="translate(-1009.059 -1021.599)" fill="#e6a56d"/>
    </clipPath>
    <clipPath id="clip-path-4">
      <path id="Path_15" data-name="Path 15" d="M437.7,1021.6l-68.186,41.58,157.032,58.151,53.15-51.837Z" transform="translate(-369.513 -1021.599)" fill="#fbc191"/>
    </clipPath>
    <clipPath id="clip-path-5">
      <path id="Path_19" data-name="Path 19" d="M1151.054,1021.6l68.186,41.58-157.032,58.151-53.149-51.837Z" transform="translate(-1009.059 -1021.599)" fill="#fbc191"/>
    </clipPath>
    <clipPath id="clip-path-6">
      <path id="Path_44" data-name="Path 44" d="M764.035,449.061l21.157-281.412H431.439l47.834,281.412,142,47.125Z" transform="translate(-431.439 -167.649)" fill="none"/>
    </clipPath>
    <clipPath id="clip-path-7">
      <path id="Path_27" data-name="Path 27" d="M919.31,903.365a8.066,8.066,0,0,1-4.218,3.993c-7.923,3.531-21.228,2.384-29.83,2.954-21.412,1.417-42.89,1.571-64.338,1.152-16.809-.328-88.793-.463-91.491-5.4-1.428-2.613-1.28-5.768-1.095-8.739a210.511,210.511,0,0,1,42.314-113.81c13.934-18.235,34.345-32.634,58.173-31.047,21.359,1.423,42.044,21.172,54.747,36.976,22.461,27.942,34.065,63.246,36.106,98.795C919.973,893.34,921.272,899.219,919.31,903.365Z" transform="translate(-728.223 -752.35)" fill="#dc9650"/>
    </clipPath>
    <clipPath id="clip-path-8">
      <path id="Path_31" data-name="Path 31" d="M916.222,610.413a27.911,27.911,0,0,0-.615-9.573c-1.6-6.844-4.994-13.16-7.415-19.692a184.921,184.921,0,0,0-8.815-20.3c-5.738-11.157-12.019-24.822-21.607-33.3-9.913-8.765-39.537-16.2-57.8-16.284l-.153,0c-.05,0-.1,0-.154,0-18.265.082-47.889,7.516-57.8,16.281-9.426,8.335-15.381,20.495-20.767,31.657-4.358,9.032-8.511,18.166-12.63,27.26-4.13,9.12-8.7,18.495-6.546,28.808,2.275,10.906,11.336,18.266,20.133,24.149,10.277,6.872,22.14,10.965,33.967,14.264,12.424,3.467,30.268,6.352,43.4,6.43.083,0,.165.007.249.007l.153,0,.153,0c.084,0,.165-.006.249-.007,13.128-.079,30.973-2.964,43.4-6.43C883.851,648.041,913.459,634.8,916.222,610.413Z" transform="translate(-721.365 -511.264)" fill="#dc9650"/>
    </clipPath>
  </defs>
  <g id="Layer_2" data-name="Layer 2" transform="translate(0.842 0.84)">
    <rect id="Rectangle_1" data-name="Rectangle 1" width="661" height="661" transform="translate(660.158 -0.84) rotate(90)" fill="none"/>
    <g id="Group_35" data-name="Group 35" transform="translate(109.424 55.294)">
      <path id="Path_1" data-name="Path 1" d="M777.631,1496.716s-99.678,42.764-222.637,42.764-222.637-42.764-222.637-42.764,99.678-42.764,222.637-42.764S777.631,1496.716,777.631,1496.716Z" transform="translate(-332.357 -1031.22)" fill="#cae8e5" style="mix-blend-mode: multiply;isolation: isolate"/>
      <g id="Group_5" data-name="Group 5" transform="translate(80.397 280.643)">
        <path id="Path_2" data-name="Path 2" d="M718.986,1230.245l-142-47.815V1021.6l142,47.815Z" transform="translate(-576.99 -1021.599)" fill="#c78249"/>
        <g id="Group_4" data-name="Group 4" clip-path="url(#clip-path)">
          <g id="Group_3" data-name="Group 3" transform="translate(-66.804 9.492)" opacity="0.5" style="mix-blend-mode: multiply;isolation: isolate">
            <g id="Group_2" data-name="Group 2">
              <path id="Path_3" data-name="Path 3" d="M441.9,1050.483l-68.186,40.811,157.032,58.151,51.767-60.639Z" transform="translate(-373.718 -1050.483)" fill="#c78249"/>
              <g id="Group_1" data-name="Group 1" clip-path="url(#clip-path-2)">
                <path id="Path_4" data-name="Path 4" d="M724.091,1034.369c-10.563-7.274-26.623-9.277-36.786-.328-8.227,7.244-11.428,19.129-11.292,29.829a17.424,17.424,0,0,0-1.83,6.286c-.214,2.4,1.568,3.716,3.423,2.141.1-.084.219-.2.333-.3a16.008,16.008,0,0,0,4.761,5.107,16.808,16.808,0,0,0-.712,3.515c-.214,2.4,1.569,3.716,3.423,2.141a27.666,27.666,0,0,0,2.767-2.877,29.933,29.933,0,0,0,7.322,1.568,16.8,16.8,0,0,0-.716,3.528c-.214,2.4,1.569,3.716,3.423,2.141a35.883,35.883,0,0,0,5.175-5.991q1.412-.256,2.807-.645c12.7-3.54,24.019-15.058,26.034-28.065C733.357,1045.094,730.1,1038.508,724.091,1034.369Z" transform="translate(-575.426 -1035.449)" fill="#c78249" style="mix-blend-mode: multiply;isolation: isolate"/>
              </g>
            </g>
          </g>
        </g>
      </g>
      <g id="Group_9" data-name="Group 9" transform="translate(222.392 280.643)">
        <path id="Path_7" data-name="Path 7" d="M1009.059,1230.245l142-47.815V1021.6l-142,47.815Z" transform="translate(-1009.059 -1021.599)" fill="#e6a56d"/>
        <g id="Group_8" data-name="Group 8" clip-path="url(#clip-path-3)">
          <g id="Group_7" data-name="Group 7" transform="translate(0 9.492)" opacity="0.5" style="mix-blend-mode: multiply;isolation: isolate">
            <g id="Group_6" data-name="Group 6">
              <path id="Path_8" data-name="Path 8" d="M1149.672,1050.483l68.186,40.811-157.032,58.151-51.767-60.639Z" transform="translate(-1009.059 -1050.483)" fill="#c78249"/>
            </g>
          </g>
        </g>
      </g>
      <path id="Path_10" data-name="Path 10" d="M718.986,876.374l-142,47.815,142,47.727,142-47.727Z" transform="translate(-496.594 -643.458)" fill="#bc713a"/>
      <path id="Path_11" data-name="Path 11" d="M718.986,876.374v94.939l-142-47.124Z" transform="translate(-496.594 -643.458)" fill="#bc713a"/>
      <path id="Path_12" data-name="Path 12" d="M559.068,765.851l47.441,36.322-142,47.815-55.06-36.438Z" transform="translate(-384.116 -569.257)" fill="#e6a56d"/>
      <g id="Group_12" data-name="Group 12" transform="translate(12.211 280.643)">
        <g id="Group_11" data-name="Group 11">
          <path id="Path_13" data-name="Path 13" d="M437.7,1021.6l-68.186,41.58,157.032,58.151,53.15-51.837Z" transform="translate(-369.513 -1021.599)" fill="#fbc191"/>
          <g id="Group_10" data-name="Group 10" clip-path="url(#clip-path-4)">
            <path id="Path_14" data-name="Path 14" d="M679.058,1050.944a19.545,19.545,0,0,0-1.478,11.948,12.149,12.149,0,0,0,18.434,7.737A15.712,15.712,0,0,0,721.632,1078a14.113,14.113,0,0,0,21.9-.874,18.116,18.116,0,0,0,3.184-11.676c-.374-8.044-3.783-16.044-10.2-21.1-6.853-5.4-15.7-7.721-24.275-8.271-7.846-.5-16.366-.076-23.358,3.9A24.019,24.019,0,0,0,679.058,1050.944Z" transform="translate(-576.088 -1031.208)" fill="#fbc191" style="mix-blend-mode: multiply;isolation: isolate"/>
          </g>
        </g>
      </g>
      <path id="Path_16" data-name="Path 16" d="M1056.5,765.851l-47.441,36.322,142,47.815,55.059-36.438Z" transform="translate(-786.667 -569.257)" fill="#e6a56d"/>
      <g id="Group_15" data-name="Group 15" transform="translate(222.392 280.643)">
        <g id="Group_14" data-name="Group 14">
          <path id="Path_17" data-name="Path 17" d="M1151.054,1021.6l68.186,41.58-157.032,58.151-53.149-51.837Z" transform="translate(-1009.059 -1021.599)" fill="#fbc191"/>
          <g id="Group_13" data-name="Group 13" clip-path="url(#clip-path-5)">
            <path id="Path_18" data-name="Path 18" d="M1197.015,1050.944a19.542,19.542,0,0,1,1.477,11.948,12.149,12.149,0,0,1-18.433,7.737,15.712,15.712,0,0,1-25.619,7.373,14.113,14.113,0,0,1-21.9-.874,18.113,18.113,0,0,1-3.184-11.676c.374-8.044,3.783-16.044,10.2-21.1,6.853-5.4,15.7-7.721,24.276-8.271,7.846-.5,16.365-.076,23.358,3.9A24.025,24.025,0,0,1,1197.015,1050.944Z" transform="translate(-1089.804 -1031.208)" fill="#fbc191" style="mix-blend-mode: multiply;isolation: isolate"/>
          </g>
        </g>
      </g>
      <g id="Group_28" data-name="Group 28" transform="translate(32.562)">
        <g id="Group_27" data-name="Group 27" clip-path="url(#clip-path-6)">
          <g id="Group_26" data-name="Group 26" transform="translate(88.193 81.02)">
            <g id="Group_25" data-name="Group 25">
              <path id="Path_20" data-name="Path 20" d="M1110.751,470.325a29.8,29.8,0,0,0,3.522,2.2,65.751,65.751,0,0,1,10.71,7.852,178.054,178.054,0,0,1,15.674,15.383c2.415,2.682,4.973,5.581,8.472,6.467,4.188,1.061,8.542-1.1,11.868-3.856,9.506-7.88,13.748-20.3,17.263-32.134,3.006-10.124,15.19-51.912-4.986-52.054a19.346,19.346,0,0,0-6.431,1.338c-15.943,5.552-33.176,16.125-44.987,28.234C1115.764,449.994,1099.1,461.7,1110.751,470.325Z" transform="translate(-972.984 -414.178)" fill="#dc9650"/>
              <path id="Path_21" data-name="Path 21" d="M1174.926,518.8a30.646,30.646,0,0,1-7.688-4.867c-3.091-2.611-6.04-5.733-7-9.663-2.12-8.713,7.292-17.505,13.229-22.5a61.3,61.3,0,0,1,24.356-12.518c2.455-.618,5.451-.932,7.152.943,1.228,1.353,1.3,3.366,1.247,5.193a88.254,88.254,0,0,1-12.58,42.715c-3.813,6.331-4.986,5.049-11.392,3.2A57.911,57.911,0,0,1,1174.926,518.8Z" transform="translate(-1008.714 -450.83)" fill="#fdb997"/>
              <path id="Path_22" data-name="Path 22" d="M773.7,470.325a29.752,29.752,0,0,1-3.522,2.2,65.778,65.778,0,0,0-10.71,7.852,178.013,178.013,0,0,0-15.674,15.383c-2.415,2.682-4.973,5.581-8.472,6.467-4.188,1.061-8.543-1.1-11.869-3.856-9.506-7.88-13.748-20.3-17.262-32.134-3.006-10.124-15.19-51.912,4.986-52.054a19.343,19.343,0,0,1,6.431,1.338c15.942,5.552,33.176,16.125,44.987,28.234C768.684,449.994,785.347,461.7,773.7,470.325Z" transform="translate(-699.795 -414.178)" fill="#dc9650"/>
              <path id="Path_23" data-name="Path 23" d="M774.153,518.8a30.639,30.639,0,0,0,7.688-4.867c3.091-2.611,6.041-5.733,7-9.663,2.121-8.713-7.291-17.505-13.229-22.5a61.3,61.3,0,0,0-24.356-12.518c-2.455-.618-5.45-.932-7.152.943-1.227,1.353-1.3,3.366-1.247,5.193a88.255,88.255,0,0,0,12.58,42.715c3.814,6.331,4.986,5.049,11.392,3.2A57.933,57.933,0,0,0,774.153,518.8Z" transform="translate(-728.696 -450.83)" fill="#fdb997"/>
              <g id="Group_18" data-name="Group 18" transform="translate(9.343 111.137)">
                <path id="Path_24" data-name="Path 24" d="M919.31,903.365a8.066,8.066,0,0,1-4.218,3.993c-7.923,3.531-21.228,2.384-29.83,2.954-21.412,1.417-42.89,1.571-64.338,1.152-16.809-.328-88.793-.463-91.491-5.4-1.428-2.613-1.28-5.768-1.095-8.739a210.511,210.511,0,0,1,42.314-113.81c13.934-18.235,34.345-32.634,58.173-31.047,21.359,1.423,42.044,21.172,54.747,36.976,22.461,27.942,34.065,63.246,36.106,98.795C919.973,893.34,921.272,899.219,919.31,903.365Z" transform="translate(-728.223 -752.35)" fill="#dc9650"/>
                <g id="Group_17" data-name="Group 17" clip-path="url(#clip-path-7)">
                  <g id="Group_16" data-name="Group 16" transform="translate(-6.781 -19.285)">
                    <path id="Path_25" data-name="Path 25" d="M912.193,915.081c-2.5,21.058,1.49,42.251,4.193,63.082.2,1.55.357,3.268-.55,4.542-.922,1.294-2.635,1.7-4.2,1.983-15.933,2.9-29.868,3.745-46.023,3.745-17.154,0-33.9-1.194-51.182-.883a3.56,3.56,0,0,1-1.522-.195,3.13,3.13,0,0,1-1.421-1.724c-1.31-3-1.339-6.386-1.345-9.662-.044-21.494,3.757-44.491.244-65.738-2.926-17.694-10.79-35.236-24.922-46.279-1.6-1.247-3.415-2.672-3.543-4.692a5.261,5.261,0,0,1,1-3.1c4.269-6.642,13.627-7.112,21.519-6.857,44.406,1.436,89.09,2.9,132.543,12.166C934.771,861,922.1,884.217,920.616,886.9,915.849,895.51,913.355,905.3,912.193,915.081Z" transform="translate(-757.49 -798.124)" fill="#e9d7cc"/>
                    <path id="Path_26" data-name="Path 26" d="M833.792,796.519a100.252,100.252,0,0,0,49.981-23.432c14.275-12.53,53.575-49.331,31.866-69.266-3.322-3.051-7.865-4.34-12.267-5.325-20.432-4.572-41.564-4.679-62.5-4.766-27.32-.113-54.658-.226-81.941,1.217-9.836.52-19.839,1.281-29.012,4.87s-17.539,10.456-20.636,19.808c-9.539,28.809,23.392,52.1,45.206,63.442C778.916,795.765,807.266,800.987,833.792,796.519Z" transform="translate(-707.59 -693.668)" fill="#e9d7cc" opacity="0.5" style="mix-blend-mode: multiply;isolation: isolate"/>
                  </g>
                </g>
              </g>
              <g id="Group_21" data-name="Group 21" transform="translate(7.089 31.906)">
                <path id="Path_28" data-name="Path 28" d="M916.222,610.413a27.911,27.911,0,0,0-.615-9.573c-1.6-6.844-4.994-13.16-7.415-19.692a184.921,184.921,0,0,0-8.815-20.3c-5.738-11.157-12.019-24.822-21.607-33.3-9.913-8.765-39.537-16.2-57.8-16.284l-.153,0c-.05,0-.1,0-.154,0-18.265.082-47.889,7.516-57.8,16.281-9.426,8.335-15.381,20.495-20.767,31.657-4.358,9.032-8.511,18.166-12.63,27.26-4.13,9.12-8.7,18.495-6.546,28.808,2.275,10.906,11.336,18.266,20.133,24.149,10.277,6.872,22.14,10.965,33.967,14.264,12.424,3.467,30.268,6.352,43.4,6.43.083,0,.165.007.249.007l.153,0,.153,0c.084,0,.165-.006.249-.007,13.128-.079,30.973-2.964,43.4-6.43C883.851,648.041,913.459,634.8,916.222,610.413Z" transform="translate(-721.365 -511.264)" fill="#dc9650"/>
                <g id="Group_20" data-name="Group 20" clip-path="url(#clip-path-8)">
                  <g id="Group_19" data-name="Group 19" transform="translate(-12.168 -33.588)">
                    <path id="Path_29" data-name="Path 29" d="M816.993,419.492c-6.511-7.635-16.542-11.02-26.4-10.347-3.572.244-6.227,2.137-9.331,3.509-3.186,1.408-6.434,1.964-8.365,5.248-1.977,3.362-1.2,7.609-.209,11.382,2.238,8.531,5.252,16.851,7.237,25.443,6.343,27.467,3.171,62.39-19.583,81.871a75.053,75.053,0,0,1-27.07,14.871c-11.5,3.46-23.636,4.092-35.624,4.869-5.339.346-11.369,1.335-12.944,7.253-.7,2.638-.269,5.435.306,8.1,2.25,10.453,7.071,25.591,15.978,32.224,10.17,7.572,20.8,14.337,32.513,19.362a163.08,163.08,0,0,0,125.858.493c7.865-3.3,16.145-7.718,21.019-14.988,2.345-3.5,3.013-7.623,4.667-11.465,1.936-4.5,3.316-9.21,5.187-13.733,2.881-6.963,6.6-13.1,7.182-20.833-.161,2.123-33.518-8.827-36.691-10.055-21.873-8.471-42.993-21.779-51.218-44.879a40.109,40.109,0,0,1-2.259-10.253,162.061,162.061,0,0,1,10.607-70.9,7.729,7.729,0,0,0,.823-4.209A6.729,6.729,0,0,0,816.993,419.492Z" transform="translate(-684.341 -409.061)" fill="#e9d7cc"/>
                    <path id="Path_30" data-name="Path 30" d="M875.038,517.546c-13.6-7.473-27.727-12.7-44.077-13.907-28.656-2.115-57.313,8.035-79.738,25.666-4.293,3.376-14.046,15.613-20.11,13.068.962-8.287,6.96-14.209,12.53-19.794,6.651-6.668,13.07-13.494,20.376-19.472,18.217-14.905,36.941-19.693,60.114-20.087,27.033-.461,60.472,3.227,80.952,22.825a103.149,103.149,0,0,1,11.57,13.839c3.18,4.344,8.9,12.242,6.856,18.1-3.442,9.827-32-10.164-36.193-12.872C883.241,522.285,879.164,519.812,875.038,517.546Z" transform="translate(-715.742 -458.689)" fill="#fff" opacity="0.3"/>
                  </g>
                </g>
              </g>
              <g id="Group_22" data-name="Group 22" transform="translate(71.152 125.34)">
                <path id="Path_32" data-name="Path 32" d="M1021.982,797.229a15.958,15.958,0,0,0,4.093,10.845,19,19,0,0,0,4.418,3.738,16.834,16.834,0,0,0,5.3,2.167,19.786,19.786,0,0,0,5.764.432,24.908,24.908,0,0,0,5.759-1.067,33.477,33.477,0,0,0,10.546-5.613,25.323,25.323,0,0,1-10.035,7.08,23.178,23.178,0,0,1-6.119,1.479,20.91,20.91,0,0,1-6.346-.369,18.121,18.121,0,0,1-5.877-2.524,18.59,18.59,0,0,1-4.614-4.354,16.375,16.375,0,0,1-2.764-5.651A12.846,12.846,0,0,1,1021.982,797.229Z" transform="translate(-987.037 -796.682)" fill="#030001"/>
                <path id="Path_33" data-name="Path 33" d="M950.782,795.566a21.962,21.962,0,0,1-4.128,14.889c-.357.42-.688.867-1.075,1.265l-.607.573-.305.286c-.106.09-.222.168-.333.253a13.533,13.533,0,0,1-6.077,2.509,27.055,27.055,0,0,1-12.535-1.675,18.273,18.273,0,0,1-5.554-3.082,14,14,0,0,1-3.868-4.9,18.106,18.106,0,0,0,9.887,6.5,41.357,41.357,0,0,0,5.9,1.188,21.232,21.232,0,0,0,5.87,0,11.918,11.918,0,0,0,5.252-2.047c.1-.067.2-.127.292-.2l.267-.231.537-.462c.345-.322.643-.7.971-1.041a28.363,28.363,0,0,0,1.725-2.42A26.162,26.162,0,0,0,950.782,795.566Z" transform="translate(-916.299 -795.566)" fill="#030001"/>
              </g>
              <path id="Path_34" data-name="Path 34" d="M1003.58,758.77a5.585,5.585,0,0,0,1.319-4.623c-1.312-6.146-11.518-6-17.274-5.786-5.66.212-12.638,1.927-11.936,7.779.55,4.584,7.734,7.551,11.3,9.465a8.894,8.894,0,0,0,3.48,1.277C994.647,767.176,1001.155,761.816,1003.58,758.77Z" transform="translate(-884.986 -638.486)" fill="#030001"/>
              <path id="Path_35" data-name="Path 35" d="M992.251,760.075c2.546-1.534,2.415-5.582-2-4.919-3.874.581-5.061,5.192-.468,5.48A4.216,4.216,0,0,0,992.251,760.075Z" transform="translate(-892.484 -643.048)" fill="#fff"/>
              <ellipse id="Ellipse_1" data-name="Ellipse 1" cx="4.867" cy="12.008" rx="4.867" ry="12.008" transform="translate(134.562 76.888) rotate(-62.841)" fill="#e9d7cc"/>
              <ellipse id="Ellipse_2" data-name="Ellipse 2" cx="12.008" cy="4.867" rx="12.008" ry="4.867" transform="matrix(0.89, -0.456, 0.456, 0.89, 50.254, 79.19)" fill="#e9d7cc"/>
              <path id="Path_36" data-name="Path 36" d="M1092.456,719.549a12.261,12.261,0,0,1,3.441-6.7,11.8,11.8,0,0,1,3.2-2.342,8.767,8.767,0,0,1,4.055-.938,7.328,7.328,0,0,1,2.139.375,7.667,7.667,0,0,1,1.921.989,9.2,9.2,0,0,1,2.634,3.113,12.709,12.709,0,0,1,1.275,3.643,21.368,21.368,0,0,1,.349,3.722,32.282,32.282,0,0,0-3.278-6.32,8.819,8.819,0,0,0-2.3-2.2,5.552,5.552,0,0,0-2.8-.833,9.855,9.855,0,0,0-5.9,2.256A19.31,19.31,0,0,0,1092.456,719.549Z" transform="translate(-963.411 -612.489)" fill="#030001"/>
              <path id="Path_37" data-name="Path 37" d="M904.537,719.549a19.311,19.311,0,0,0-4.731-5.238,9.857,9.857,0,0,0-5.9-2.256,5.551,5.551,0,0,0-2.8.833,8.818,8.818,0,0,0-2.3,2.2,32.288,32.288,0,0,0-3.278,6.32,21.344,21.344,0,0,1,.349-3.722,12.7,12.7,0,0,1,1.275-3.643,9.2,9.2,0,0,1,2.635-3.113,7.659,7.659,0,0,1,1.921-.989,7.328,7.328,0,0,1,2.139-.375,8.768,8.768,0,0,1,4.054.938,11.8,11.8,0,0,1,3.2,2.342A12.257,12.257,0,0,1,904.537,719.549Z" transform="translate(-824.484 -612.489)" fill="#030001"/>
              <g id="Group_23" data-name="Group 23" transform="translate(120.074 119.539)" opacity="0.5">
                <path id="Path_38" data-name="Path 38" d="M1079.39,779.318a5.22,5.22,0,0,1,1.593-.917,7.777,7.777,0,0,1,3.48-.447,5.3,5.3,0,0,1,1.773.479,6.99,6.99,0,0,1-1.677.69,11.474,11.474,0,0,1-1.672.335,11.872,11.872,0,0,1-1.7.094A7.329,7.329,0,0,1,1079.39,779.318Z" transform="translate(-1074.713 -777.915)" fill="#030001"/>
                <path id="Path_39" data-name="Path 39" d="M1065.16,817.014a6.824,6.824,0,0,1,2.175-.331,9.923,9.923,0,0,1,2.138.233,9.777,9.777,0,0,1,2.039.684,6.756,6.756,0,0,1,1.834,1.216,11.4,11.4,0,0,1-2.161-.088c-.691-.086-1.365-.205-2.033-.354s-1.33-.323-1.994-.534A11.6,11.6,0,0,1,1065.16,817.014Z" transform="translate(-1065.16 -803.942)" fill="#030001"/>
                <path id="Path_40" data-name="Path 40" d="M1098.078,798.023a4.257,4.257,0,0,1,1.477-.687,6.087,6.087,0,0,1,3.068,0,4.232,4.232,0,0,1,1.474.7,5.611,5.611,0,0,1-1.532.476,8.5,8.5,0,0,1-1.479.121,8.715,8.715,0,0,1-1.479-.13A5.68,5.68,0,0,1,1098.078,798.023Z" transform="translate(-1087.259 -790.823)" fill="#030001"/>
              </g>
              <g id="Group_24" data-name="Group 24" transform="translate(72.614 119.539)" opacity="0.5">
                <path id="Path_41" data-name="Path 41" d="M943.763,779.318a7.331,7.331,0,0,1-1.8.235,11.871,11.871,0,0,1-1.7-.094,11.467,11.467,0,0,1-1.672-.335,7,7,0,0,1-1.677-.69,5.293,5.293,0,0,1,1.773-.479,7.776,7.776,0,0,1,3.48.447A5.223,5.223,0,0,1,943.763,779.318Z" transform="translate(-931.603 -777.915)" fill="#030001"/>
                <path id="Path_42" data-name="Path 42" d="M955.255,817.014a11.581,11.581,0,0,1-2,.825c-.663.212-1.325.386-1.994.534s-1.342.267-2.033.354a11.4,11.4,0,0,1-2.161.088A6.749,6.749,0,0,1,948.9,817.6a9.781,9.781,0,0,1,2.039-.684,9.924,9.924,0,0,1,2.138-.233A6.826,6.826,0,0,1,955.255,817.014Z" transform="translate(-938.419 -803.942)" fill="#030001"/>
                <path id="Path_43" data-name="Path 43" d="M926.766,798.023a5.678,5.678,0,0,1-1.53.481,8.707,8.707,0,0,1-1.478.13,8.5,8.5,0,0,1-1.479-.121,5.612,5.612,0,0,1-1.532-.476,4.23,4.23,0,0,1,1.474-.7,5.961,5.961,0,0,1,1.533-.2,6.023,6.023,0,0,1,1.534.194A4.256,4.256,0,0,1,926.766,798.023Z" transform="translate(-920.748 -790.823)" fill="#030001"/>
              </g>
              <ellipse id="Ellipse_3" data-name="Ellipse 3" cx="11.883" cy="9.727" rx="11.883" ry="9.727" transform="translate(150.629 110.996)" fill="#fd928c"/>
              <ellipse id="Ellipse_4" data-name="Ellipse 4" cx="11.883" cy="9.727" rx="11.883" ry="9.727" transform="translate(36.273 110.996)" fill="#fd928c"/>
            </g>
          </g>
        </g>
      </g>
      <g id="Group_31" data-name="Group 31" transform="translate(262.837 280.993)">
        <g id="Group_30" data-name="Group 30" transform="translate(0)">
          <path id="Path_45" data-name="Path 45" d="M1199.812,1037.7a19.543,19.543,0,0,1,1.478,11.948,12.149,12.149,0,0,1-18.433,7.737,15.712,15.712,0,0,1-25.619,7.373,14.113,14.113,0,0,1-21.9-.874,18.117,18.117,0,0,1-3.184-11.677c.375-8.044,3.783-16.043,10.2-21.1,6.853-5.4,15.7-7.721,24.275-8.271,7.846-.5,16.366-.076,23.358,3.9A24.021,24.021,0,0,1,1199.812,1037.7Z" transform="translate(-1132.126 -1022.664)" fill="#dc9650"/>
          <path id="Path_46" data-name="Path 46" d="M1316.189,1099.888a7.869,7.869,0,0,1,1.756,2.314,10.615,10.615,0,0,1,.913,2.534,10.112,10.112,0,0,1,.238,2.7,6.853,6.853,0,0,1-.712,2.841,9.292,9.292,0,0,1-1.592-2.395,11.825,11.825,0,0,1-.848-2.5,11.614,11.614,0,0,1-.276-2.642A8.063,8.063,0,0,1,1316.189,1099.888Z" transform="translate(-1255.349 -1074.509)" fill="#030001"/>
          <path id="Path_47" data-name="Path 47" d="M1246.017,1134.975a8.648,8.648,0,0,1,1.447,2.292,14.016,14.016,0,0,1,.807,2.393c.1.4.174.808.239,1.206a5.855,5.855,0,0,1,.1,1.219,6.6,6.6,0,0,1-.7,2.678,4.156,4.156,0,0,1-1.965-2.143,8.372,8.372,0,0,1-.546-2.485,13.6,13.6,0,0,1,.007-2.532A9.816,9.816,0,0,1,1246.017,1134.975Z" transform="translate(-1208.133 -1098.065)" fill="#030001"/>
          <g id="Group_29" data-name="Group 29" transform="translate(0.012 17.72)" style="mix-blend-mode: multiply;isolation: isolate">
            <path id="Path_48" data-name="Path 48" d="M1134.524,1093.7a14.112,14.112,0,0,0,21.9.874,15.712,15.712,0,0,0,25.618-7.374,12.149,12.149,0,0,0,18.434-7.737,17.418,17.418,0,0,0,.349-2.876,18.794,18.794,0,0,1,.487,9.26,12.149,12.149,0,0,1-18.433,7.737,15.712,15.712,0,0,1-25.619,7.373,14.112,14.112,0,0,1-21.9-.874,17.9,17.9,0,0,1-3.191-11.149A15.433,15.433,0,0,0,1134.524,1093.7Z" transform="translate(-1132.163 -1076.584)" fill="#eee2d2"/>
          </g>
          <path id="Path_49" data-name="Path 49" d="M1174.922,1140.245a8.884,8.884,0,0,1,1.519,2.177,10.45,10.45,0,0,1,.815,2.251,10.025,10.025,0,0,1,.277,2.389,7.726,7.726,0,0,1-.455,2.637,6.267,6.267,0,0,1-1.811-2.024,8.53,8.53,0,0,1-1.123-4.811A5.79,5.79,0,0,1,1174.922,1140.245Z" transform="translate(-1160.323 -1101.603)" fill="#030001"/>
          <path id="Path_50" data-name="Path 50" d="M1192.519,1030.563c-7.3-3.934-16.234-4.308-24.462-3.755-9,.6-18.284,2.988-25.5,8.432a27.4,27.4,0,0,0-9.759,14.7c.857-7.256,4.192-14.252,10.007-18.832,6.852-5.4,15.7-7.721,24.275-8.271,7.847-.5,16.366-.076,23.358,3.9a23.974,23.974,0,0,1,9.328,9.924A23.832,23.832,0,0,0,1192.519,1030.563Z" transform="translate(-1132.576 -1022.664)" fill="#fff" opacity="0.3"/>
        </g>
      </g>
      <g id="Group_34" data-name="Group 34" transform="translate(112.063 280.993)">
        <g id="Group_33" data-name="Group 33">
          <path id="Path_51" data-name="Path 51" d="M675.193,1037.7a19.545,19.545,0,0,0-1.478,11.948,12.149,12.149,0,0,0,18.433,7.737,15.712,15.712,0,0,0,25.619,7.373,14.113,14.113,0,0,0,21.9-.874,18.114,18.114,0,0,0,3.184-11.677c-.374-8.044-3.783-16.043-10.2-21.1-6.852-5.4-15.7-7.721-24.275-8.271-7.846-.5-16.366-.076-23.358,3.9A24.018,24.018,0,0,0,675.193,1037.7Z" transform="translate(-673.345 -1022.664)" fill="#dc9650"/>
          <path id="Path_52" data-name="Path 52" d="M693.832,1099.888a8.075,8.075,0,0,1,.521,2.851,11.621,11.621,0,0,1-.276,2.642,11.828,11.828,0,0,1-.848,2.5,9.3,9.3,0,0,1-1.592,2.395,6.86,6.86,0,0,1-.713-2.841,10.124,10.124,0,0,1,.238-2.7,10.6,10.6,0,0,1,.913-2.534A7.863,7.863,0,0,1,693.832,1099.888Z" transform="translate(-685.14 -1074.509)" fill="#030001"/>
          <path id="Path_53" data-name="Path 53" d="M764.356,1134.975a9.843,9.843,0,0,1,.614,2.626,13.586,13.586,0,0,1,.007,2.532,8.365,8.365,0,0,1-.546,2.485,4.154,4.154,0,0,1-1.965,2.143,6.6,6.6,0,0,1-.7-2.678,5.859,5.859,0,0,1,.1-1.219c.065-.4.143-.8.239-1.206a14.014,14.014,0,0,1,.806-2.393A8.649,8.649,0,0,1,764.356,1134.975Z" transform="translate(-732.706 -1098.065)" fill="#030001"/>
          <g id="Group_32" data-name="Group 32" transform="translate(0.002 17.72)" style="mix-blend-mode: multiply;isolation: isolate">
            <path id="Path_54" data-name="Path 54" d="M740.509,1093.7a14.112,14.112,0,0,1-21.9.874,15.712,15.712,0,0,1-25.619-7.374,12.148,12.148,0,0,1-18.433-7.737,17.354,17.354,0,0,1-.35-2.876,18.793,18.793,0,0,0-.487,9.26,12.149,12.149,0,0,0,18.433,7.737,15.712,15.712,0,0,0,25.619,7.373,14.112,14.112,0,0,0,21.9-.874,17.9,17.9,0,0,0,3.191-11.149A15.435,15.435,0,0,1,740.509,1093.7Z" transform="translate(-673.351 -1076.584)" fill="#eee2d2"/>
          </g>
          <path id="Path_55" data-name="Path 55" d="M835.165,1140.245a5.786,5.786,0,0,1,.778,2.618,8.532,8.532,0,0,1-1.123,4.811,6.265,6.265,0,0,1-1.811,2.024,7.732,7.732,0,0,1-.455-2.637,10.015,10.015,0,0,1,.277-2.389,10.455,10.455,0,0,1,.815-2.251A8.889,8.889,0,0,1,835.165,1140.245Z" transform="translate(-780.231 -1101.603)" fill="#030001"/>
          <path id="Path_56" data-name="Path 56" d="M687.726,1030.563c7.305-3.934,16.234-4.308,24.462-3.755,9,.6,18.283,2.988,25.5,8.432a27.394,27.394,0,0,1,9.759,14.7c-.857-7.256-4.192-14.252-10.007-18.832-6.852-5.4-15.7-7.721-24.275-8.271-7.846-.5-16.366-.076-23.358,3.9a23.971,23.971,0,0,0-9.328,9.924A23.832,23.832,0,0,1,687.726,1030.563Z" transform="translate(-678.136 -1022.664)" fill="#fff" opacity="0.3"/>
        </g>
      </g>
    </g>
  </g>
</svg>
