<svg id="medical-kit" xmlns="http://www.w3.org/2000/svg" width="57.252" height="57.252" viewBox="0 0 57.252 57.252">
  <path id="Path_36876" data-name="Path 36876" d="M70.478,29.359H58.939V26.5a9.308,9.308,0,0,0-4.312-7.524,17.293,17.293,0,0,0-10-2.973,17.293,17.293,0,0,0-10,2.973A9.308,9.308,0,0,0,30.313,26.5v2.863H18.774A2.777,2.777,0,0,0,16,32.133V66.661a2.777,2.777,0,0,0,2.774,2.774h4a4.779,4.779,0,0,0,4.675,3.817H61.8a4.779,4.779,0,0,0,4.676-3.817h4a2.777,2.777,0,0,0,2.773-2.774V32.133a2.777,2.777,0,0,0-2.774-2.774Zm-15.356,0V27.45h1.908v1.908ZM36.038,26.5c0-2.586,3.933-4.771,8.588-4.771s8.588,2.185,8.588,4.771v2.863H36.038Zm8.588-8.588c6.374,0,11.64,3.346,12.328,7.634H55.018c-.707-3.278-5.017-5.725-10.392-5.725s-9.685,2.448-10.392,5.725H32.3C32.986,21.254,38.252,17.908,44.626,17.908Zm-12.4,9.542H34.13v1.908H32.221ZM24.752,69.435h4.607v1.908H27.45a2.867,2.867,0,0,1-2.7-1.908Zm33.233,0v1.908H56.076V69.435Zm-3.817,1.908H35.084V69.435H54.168Zm-20.992,0H31.267V69.435h1.908Zm28.626,0H59.893V69.435H64.5a2.867,2.867,0,0,1-2.7,1.908Zm9.542-4.682a.866.866,0,0,1-.865.865h-51.7a.866.866,0,0,1-.865-.865V32.133a.866.866,0,0,1,.865-.865h51.7a.866.866,0,0,1,.865.865Z" transform="translate(-16 -16)" fill="#515151"/>
  <path id="Path_36877" data-name="Path 36877" d="M157.359,184a13.359,13.359,0,1,0,13.359,13.359A13.359,13.359,0,0,0,157.359,184Zm0,24.809a11.45,11.45,0,1,1,11.45-11.45A11.45,11.45,0,0,1,157.359,208.809Z" transform="translate(-128.733 -163.962)" fill="#515151"/>
  <path id="Path_36878" data-name="Path 36878" d="M206.313,236.771H202.5v-3.817a.954.954,0,0,0-.954-.954h-3.817a.954.954,0,0,0-.954.954v3.817h-3.817a.954.954,0,0,0-.954.954v3.817a.954.954,0,0,0,.954.954h3.817v3.817a.954.954,0,0,0,.954.954h3.817a.954.954,0,0,0,.954-.954V242.5h3.817a.954.954,0,0,0,.954-.954v-3.817A.954.954,0,0,0,206.313,236.771Zm-.954,3.817h-3.817a.954.954,0,0,0-.954.954v3.817h-1.908v-3.817a.954.954,0,0,0-.954-.954h-3.817v-1.908h3.817a.954.954,0,0,0,.954-.954v-3.817h1.908v3.817a.954.954,0,0,0,.954.954h3.817Z" transform="translate(-171.008 -206.237)" fill="#515151"/>
</svg>
