<svg id="picnic-basket" xmlns="http://www.w3.org/2000/svg" width="61.077" height="61.077" viewBox="0 0 61.077 61.077">
  <g id="Group_20085" data-name="Group 20085" transform="translate(29.346 38.889)">
    <g id="Group_20084" data-name="Group 20084">
      <path id="Path_36849" data-name="Path 36849" d="M247.193,326a1.193,1.193,0,1,0,1.193,1.193A1.193,1.193,0,0,0,247.193,326Z" transform="translate(-246 -326)" fill="#515151"/>
    </g>
  </g>
  <g id="Group_20087" data-name="Group 20087">
    <g id="Group_20086" data-name="Group 20086">
      <path id="Path_36850" data-name="Path 36850" d="M61.077,32.924a3.583,3.583,0,0,0-3.1-3.546V27.437a27.437,27.437,0,0,0-54.874,0v1.941a3.578,3.578,0,0,0,.027,7.1A29.344,29.344,0,0,0,5.4,49.074a27.35,27.35,0,0,0,8.011,10.777,5.83,5.83,0,0,0,3.639,1.226H44.023a5.83,5.83,0,0,0,3.639-1.226,27.341,27.341,0,0,0,8.011-10.777,29.347,29.347,0,0,0,2.276-12.6A3.577,3.577,0,0,0,61.077,32.924ZM5.487,27.437a25.051,25.051,0,0,1,50.1,0v1.909H53.2V27.437a22.665,22.665,0,1,0-45.331,0v1.909H5.487Zm17.894-2.863a1.193,1.193,0,0,0,1.193-1.193V22.307a5.923,5.923,0,0,1,4.068,3.032,24.753,24.753,0,0,0-2.8,4.007H17.536a5.968,5.968,0,0,1,4.652-7.037v1.073A1.193,1.193,0,0,0,23.381,24.574Zm7.177,2.194q.054-.023.1-.05l4.232,1.411a1.193,1.193,0,0,0,.755-2.263l-3.225-1.075a27.119,27.119,0,0,1,2.2-1.908l4.138,1.378A1.193,1.193,0,0,0,39.518,22l-2.4-.8c2.677-1.533,4.508-1.633,5.048-1.092.954.954-.213,4.887-4.216,9.24H28.621A24.158,24.158,0,0,1,30.558,26.768ZM44.13,24.324c1.045-2.583.947-4.681-.278-5.906-1.885-1.885-5.775-1.052-10.153,2.173l-.016.012-.008.006a29.426,29.426,0,0,0-3.319,2.869l-.031.031a8.29,8.29,0,0,0-5.442-3.572,6.988,6.988,0,0,1,1.727-2.871,1.193,1.193,0,0,0-1.687-1.687,9.388,9.388,0,0,0-2.488,4.477,8.345,8.345,0,0,0-7.319,9.489H10.259V27.437a20.279,20.279,0,1,1,40.559,0v1.909H41.084A21.067,21.067,0,0,0,44.13,24.324ZM17.054,58.691a3.44,3.44,0,0,1-2.149-.7A26.464,26.464,0,0,1,5.518,36.5h9.557c.321,8.67,2.359,16.846,5.487,22.188Zm14.678,0V44.853a1.193,1.193,0,0,0-2.386,0V58.691H23.382c-3.3-4.812-5.573-13.342-5.919-22.2h26.15c-.346,8.858-2.614,17.388-5.919,22.2Zm14.441-.7a3.44,3.44,0,0,1-2.149.7H40.515C43.643,53.349,45.681,45.173,46,36.5h9.557A26.46,26.46,0,0,1,46.172,57.987ZM57.5,34.117H3.579a1.193,1.193,0,0,1,0-2.386H57.5a1.193,1.193,0,1,1,0,2.386Z" fill="#515151"/>
    </g>
  </g>
</svg>
