<svg id="speakers" xmlns="http://www.w3.org/2000/svg" width="59.362" height="59.362" viewBox="0 0 59.362 59.362">
  <path id="Path_36864" data-name="Path 36864" d="M72.394,16H36.777a2.971,2.971,0,0,0-2.968,2.968V29.851H20.947A4.953,4.953,0,0,0,16,34.8V70.415a4.953,4.953,0,0,0,4.947,4.947H72.394a2.971,2.971,0,0,0,2.968-2.968V18.968A2.971,2.971,0,0,0,72.394,16ZM43.7,42.915v27.5a2.971,2.971,0,0,1-2.968,2.968H20.947a2.971,2.971,0,0,1-2.968-2.968V34.8a2.971,2.971,0,0,1,2.968-2.968H40.734A2.971,2.971,0,0,1,43.7,34.8ZM73.383,72.394a.99.99,0,0,1-.989.989H44.667a4.9,4.9,0,0,0,1.014-2.968V64.46a14.84,14.84,0,1,0,0-23.707V34.8a4.953,4.953,0,0,0-4.947-4.947H35.787V18.968a.99.99,0,0,1,.989-.989H72.394a.99.99,0,0,1,.989.989ZM54.585,62.5a9.894,9.894,0,1,0-8.9-14.178V43.344a12.862,12.862,0,1,1,0,18.526V56.89A9.9,9.9,0,0,0,54.585,62.5ZM46.67,52.606a7.915,7.915,0,1,1,7.915,7.915A7.915,7.915,0,0,1,46.67,52.606Z" transform="translate(-16 -16)" fill="#515151"/>
  <path id="Path_36865" data-name="Path 36865" d="M68.777,192H48.989a.989.989,0,0,0-.989.989v27.7a.989.989,0,0,0,.989.989H68.777a.989.989,0,0,0,.989-.989v-27.7A.989.989,0,0,0,68.777,192Zm-.989,27.7H49.979V193.979H67.787Z" transform="translate(-44.043 -170.234)" fill="#515151"/>
  <circle id="Ellipse_1135" data-name="Ellipse 1135" cx="0.935" cy="0.935" r="0.935" transform="translate(14.048 53.314)" fill="#515151"/>
  <path id="Path_36866" data-name="Path 36866" d="M89.689,161.689a.989.989,0,1,0-1.4,0A.989.989,0,0,0,89.689,161.689Z" transform="translate(-79.096 -142.192)" fill="#515151"/>
  <path id="Path_36867" data-name="Path 36867" d="M120.989,161.979h4.947a.989.989,0,0,0,0-1.979h-4.947a.989.989,0,1,0,0,1.979Z" transform="translate(-107.138 -142.191)" fill="#515151"/>
  <path id="Path_36868" data-name="Path 36868" d="M271.915,48a7.915,7.915,0,1,0,7.915,7.915A7.915,7.915,0,0,0,271.915,48Zm0,13.851a5.936,5.936,0,1,1,5.936-5.936A5.936,5.936,0,0,1,271.915,61.851Z" transform="translate(-233.33 -44.043)" fill="#515151"/>
  <path id="Path_36869" data-name="Path 36869" d="M418.968,416a2.968,2.968,0,1,0,2.968,2.968A2.968,2.968,0,0,0,418.968,416Zm0,3.957a.989.989,0,1,1,.989-.989A.989.989,0,0,1,418.968,419.957Z" transform="translate(-366.532 -366.532)" fill="#515151"/>
  <path id="Path_36870" data-name="Path 36870" d="M306.968,88a2.968,2.968,0,1,0,2.968,2.968A2.968,2.968,0,0,0,306.968,88Zm0,3.957a.989.989,0,1,1,.989-.989A.989.989,0,0,1,306.968,91.957Z" transform="translate(-268.383 -79.096)" fill="#515151"/>
  <path id="Path_36871" data-name="Path 36871" d="M113.285,288.759a6.913,6.913,0,0,0-6.191,0,.99.99,0,1,0,.886,1.77,4.916,4.916,0,0,1,4.419,0,.99.99,0,0,0,.886-1.77Z" transform="translate(-95.348 -254.386)" fill="#515151"/>
  <path id="Path_36872" data-name="Path 36872" d="M93.685,258.96a8.867,8.867,0,0,1,7.954,0,.989.989,0,1,0,.887-1.769,10.844,10.844,0,0,0-9.728,0,.989.989,0,1,0,.887,1.769Z" transform="translate(-82.822 -226.354)" fill="#515151"/>
  <ellipse id="Ellipse_1136" data-name="Ellipse 1136" cx="0.935" cy="0.467" rx="0.935" ry="0.467" transform="translate(14.048 42.095)" fill="#515151"/>
  <path id="Path_36873" data-name="Path 36873" d="M124.067,320.335a2.906,2.906,0,0,0-2.65,0,.989.989,0,1,0,.887,1.769.924.924,0,0,1,.875,0,.989.989,0,1,0,.887-1.768Z" transform="translate(-107.902 -282.417)" fill="#515151"/>
</svg>
