<svg id="wallet" xmlns="http://www.w3.org/2000/svg" width="75.038" height="71.466" viewBox="0 0 75.038 71.466">
  <path id="Path_37037" data-name="Path 37037" d="M75.464,40.841V29.8a7.146,7.146,0,0,0-7.146-7.147H66.531V11.5A8.219,8.219,0,0,0,64.084,5.68,9.272,9.272,0,0,0,57.6,3L13.773,11.7A12.757,12.757,0,0,0,4,24.207v37.7A12.882,12.882,0,0,0,9.11,72.143a12.041,12.041,0,0,0,7.254,2.323H68.318a7.146,7.146,0,0,0,7.146-7.147V59.851a5.36,5.36,0,0,0,3.573-5.038V45.879a5.36,5.36,0,0,0-3.573-5.038Zm0,13.972A1.787,1.787,0,0,1,73.678,56.6H52.238a1.787,1.787,0,0,1-1.787-1.787V45.879a1.787,1.787,0,0,1,1.787-1.787H73.678a1.787,1.787,0,0,1,1.787,1.787Zm-7.146,16.08H16.506V58.386a1.787,1.787,0,1,0-3.573,0V70.142a7.789,7.789,0,0,1-1.679-.947,9.291,9.291,0,0,1-3.68-7.379v-37.7a9.165,9.165,0,0,1,6.986-8.933l42.575-8.5a3.984,3.984,0,0,1,1.126,0,5.681,5.681,0,0,1,3.287,1.608A4.538,4.538,0,0,1,62.958,11.5V22.653H18.99a8.451,8.451,0,0,1-6.057-2.537h0a1.787,1.787,0,0,0-2.5,2.537h0a12.1,12.1,0,0,0,8.558,3.573H68.318A3.573,3.573,0,0,1,71.891,29.8v10.72H52.238a5.36,5.36,0,0,0-5.36,5.36v8.933a5.36,5.36,0,0,0,5.36,5.36H71.891v7.147A3.573,3.573,0,0,1,68.318,70.892Z" transform="translate(-4 -3)" fill="#444"/>
  <circle id="Ellipse_1143" data-name="Ellipse 1143" cx="3" cy="3" r="3" transform="translate(49 44.265)" fill="#444"/>
  <path id="Path_37038" data-name="Path 37038" d="M10.787,24A1.787,1.787,0,0,0,9,25.787v7.147a1.787,1.787,0,1,0,3.573,0V25.787A1.787,1.787,0,0,0,10.787,24Z" transform="translate(-0.067 13.519)" fill="#444"/>
</svg>
