<?xml version="1.0" encoding="iso-8859-1"?>
<!-- Generator: Adobe Illustrator 19.0.0, SVG Export Plug-In . SVG Version: 6.00 Build 0)  -->
<svg version="1.1" id="Layer_1" xmlns="http://www.w3.org/2000/svg" xmlns:xlink="http://www.w3.org/1999/xlink" x="0px" y="0px"
	 viewBox="0 0 512 512" style="enable-background:new 0 0 512 512;" xml:space="preserve">
<g>
	<g>
		<path d="M469.344,64C475.219,64,480,59.227,480,53.336s-4.781-10.672-10.656-10.672h-42.688c-5.875,0-10.656,4.781-10.656,10.672
			S420.781,64,426.656,64h-85.312C347.219,64,352,59.227,352,53.336s-4.781-10.672-10.656-10.672h-42.688
			c-5.875,0-10.656,4.781-10.656,10.672S292.781,64,298.656,64h-85.32C219.227,64,224,59.227,224,53.336
			s-4.773-10.672-10.664-10.672h-42.672c-5.891,0-10.664,4.781-10.664,10.672S164.773,64,170.664,64H85.336
			C91.227,64,96,59.227,96,53.336s-4.773-10.672-10.664-10.672H42.664C36.773,42.664,32,47.445,32,53.336S36.773,64,42.664,64H0
			v277.336h213.336v128h85.32v-128H512V64H469.344z M277.344,447.992h-42.68V341.336h42.68V447.992z M490.656,319.992H21.336V85.336
			h469.32V319.992z"/>
	</g>
</g>
<g>
	<g>
		<path d="M161.523,138.664l-41.922,73.367l-22.078-36.797l-54.859,91.43h45.719h64h82.281L161.523,138.664z M100.571,245.335
			H80.345l17.179-28.632l9.938,16.57L100.571,245.335z M125.14,245.336l36.383-63.672l36.383,63.672H125.14z"/>
	</g>
</g>
<g>
	<g>
		<path d="M373.344,181.336H288c-5.891,0-10.656,4.773-10.656,10.664s4.765,10.664,10.656,10.664h85.344
			c5.875,0,10.656-4.773,10.656-10.664S379.219,181.336,373.344,181.336z"/>
	</g>
</g>
<g>
	<g>
		<path d="M437.344,224H288c-5.891,0-10.656,4.773-10.656,10.664s4.765,10.672,10.656,10.672h149.344
			c5.875,0,10.656-4.781,10.656-10.672S443.219,224,437.344,224z"/>
	</g>
</g>
<g>
</g>
<g>
</g>
<g>
</g>
<g>
</g>
<g>
</g>
<g>
</g>
<g>
</g>
<g>
</g>
<g>
</g>
<g>
</g>
<g>
</g>
<g>
</g>
<g>
</g>
<g>
</g>
<g>
</g>
</svg>
