<?xml version="1.0" ?><svg enable-background="new 0 0 400 400" id="Layer_1" version="1.1" viewBox="0 0 400 400" xml:space="preserve" xmlns="http://www.w3.org/2000/svg" xmlns:xlink="http://www.w3.org/1999/xlink"><g><path d="M202.334,265.963c-2.481,0-4.5,2.019-4.5,4.5s2.019,4.5,4.5,4.5s4.5-2.019,4.5-4.5   S204.816,265.963,202.334,265.963z" fill="none"/><path d="M109.663,322.321l-11.475,10.147c-0.951,0.841-2.134,1.254-3.311,1.254c-1.383,0-2.76-0.57-3.747-1.688   c-1.83-2.068-1.636-5.229,0.433-7.058l11.475-10.147c5.328-4.712,8.207-11.761,7.7-18.856l-1.095-15.331   c-0.645-9.015-0.557-18.562,4.396-27.305l13.984-26.121c1.381-2.108,0.868-4.923-1.165-6.409c-2-1.462-4.78-1.129-6.383,0.743   l-37.119,51.562c-1.613,2.241-4.737,2.75-6.979,1.136c-2.241-1.613-2.75-4.738-1.137-6.979l29.635-41.154v-18.193l-37.926,45.012   c-3.209,3.809-5.206,8.438-5.775,13.386l-4.815,41.741c-3.069,15.108,4.368,30.574,18.087,37.608   c13.64,6.996,30.424,4.083,40.916-7.065l13.534-18.257c2.532-3.416,3.927-7.639,3.927-11.89v-11.492h-12.04   C120.962,306.563,116.882,315.936,109.663,322.321z" fill="none"/><path d="M288.939,235.163c-5.391,0-10.765-0.694-15.991-2.067c-0.312-0.076-0.617-0.16-0.925-0.246l-0.255-0.071   c-4.208-1.193-8.296-2.827-12.192-4.869c-3.036-1.327-32.629-14.433-33.919-15.004l-28.335-12.243   c-4.162-2.063-7.273-5.621-8.761-10.018c-1.489-4.402-1.173-9.119,0.892-13.283c4.204-8.494,14.469-12.042,22.999-8.012   l18.25,6.496l-42.669-64.815c-5.272-8.008-3.046-18.812,4.962-24.084c5.457-3.592,12.386-3.834,18.085-0.635   c2.4,1.348,4.476,3.283,5.999,5.596l20.041,30.443c1.314-2.819,3.398-5.32,6.183-7.152c5.458-3.591,12.388-3.834,18.085-0.634   c0.016,0.008,0.03,0.017,0.045,0.025c2.52-7.514,10.785-12.743,19.037-11.679c2.353,0.303,4.669,1.104,6.701,2.315   c0.413,0.247,0.793,0.502,1.146,0.763c0.195-0.532,0.415-1.05,0.656-1.551c0.242-0.502,0.517-0.986,0.805-1.461V41.008h-174.9   v152.447c0.066,0.471,0.069,0.947,0,1.421v18.253c3.112-2.492,7.058-3.569,10.91-3.119V54.488c0-1.38,1.12-2.5,2.5-2.5h148.09   c1.38,0,2.5,1.12,2.5,2.5v39.75c0,1.38-1.12,2.5-2.5,2.5c-1.38,0-2.5-1.12-2.5-2.5v-37.25h-143.09v154.547   c0.676,0.348,1.339,0.737,1.972,1.199c6.268,4.58,7.895,13.214,3.764,19.754l-5.736,10.729v7.7h143.09v-8.72   c0-1.38,1.12-2.5,2.5-2.5c1.38,0,2.5,1.12,2.5,2.5v11.22c0,1.39-1.12,2.5-2.5,2.5h-148.09c-1.38,0-2.5-1.11-2.5-2.5v-0.847   l-3.023,5.655c-3.669,6.443-3.681,14.24-3.146,21.705l0.502,7.037h169.657v-51.813   C289.498,235.158,289.219,235.163,288.939,235.163z M178.673,80.366c5.727-6.346,13.582-10.082,22.118-10.52   c8.532-0.435,16.732,2.474,23.078,8.201c5.859,5.288,9.546,12.517,10.381,20.357c0.146,1.373-0.849,2.604-2.222,2.75   c-1.376,0.153-2.604-0.848-2.751-2.221c-0.704-6.614-3.814-12.713-8.758-17.175c-11.053-9.974-28.161-9.097-38.134,1.957   c-4.832,5.354-7.289,12.27-6.92,19.472s3.521,13.83,8.876,18.662c1.311,1.182,2.734,2.237,4.232,3.134   c1.185,0.71,1.569,2.245,0.859,3.43c-0.469,0.782-1.297,1.215-2.146,1.215c-0.438,0-0.881-0.115-1.283-0.356   c-1.775-1.064-3.462-2.313-5.012-3.711c-6.346-5.726-10.082-13.581-10.52-22.117C170.035,94.907,172.948,86.711,178.673,80.366z    M211.77,216.768c-1.808,0.334-3.636,0.496-5.46,0.496c-11.646,0-23.142-6.599-28.713-17.006   c-6.431-12.014-3.98-27.868,5.827-37.696c5.868-5.881,14.068-9.233,22.555-9.233c0.141,0,0.281,0.001,0.423,0.002   c1.38,0.019,2.484,1.152,2.467,2.533c-0.019,1.381-1.149,2.485-2.533,2.467c-7.272-0.11-14.353,2.733-19.372,7.762   c-8.29,8.308-10.375,21.684-4.958,31.805c5.443,10.169,17.573,16.04,28.856,13.952c1.358-0.251,2.661,0.647,2.912,2.004   C214.025,215.213,213.128,216.517,211.77,216.768z M202.334,279.963c-5.238,0-9.5-4.262-9.5-9.5s4.262-9.5,9.5-9.5   s9.5,4.262,9.5,9.5S207.573,279.963,202.334,279.963z" fill="none"/><path d="M310.792,107.952c-1.086-1.649-2.748-2.776-4.68-3.175c-1.933-0.398-3.905-0.02-5.554,1.066   c-1.112,0.733-2.005,1.75-2.579,2.942c-0.261,0.538-0.465,1.14-0.608,1.789c-0.023,0.148-0.028,0.346-0.042,0.546   c-0.097,1.416-0.391,5.725-4.702,7.338c-1.771,0.663-5.253,1.187-8.643-2.758c-0.845-0.985-1.313-1.514-1.936-1.885   c-0.866-0.516-1.854-0.857-2.856-0.986c-3.618-0.466-7.81,2.296-8.447,5.577c-0.187,0.957-0.116,1.958,0.208,2.974   c0.939,2.987-0.476,6.231-3.284,7.566c-2.813,1.336-6.22,0.383-7.932-2.217l-0.704-1.071c-0.657-0.997-1.513-1.797-2.542-2.375   c-2.425-1.361-5.371-1.259-7.691,0.268c-3.402,2.24-4.348,6.831-2.107,10.233l0.877,1.333c0.894,1.322,1.223,2.892,0.927,4.432   c-0.297,1.543-1.222,2.924-2.537,3.791c-1.301,0.858-2.919,1.164-4.441,0.83c-1.542-0.337-2.87-1.275-3.747-2.644l-29.045-44.119   c-0.657-0.999-1.513-1.798-2.542-2.376c-2.426-1.362-5.372-1.258-7.691,0.268c-3.402,2.24-4.348,6.83-2.107,10.233l46.133,70.076   c1.933,2.784,1.866,6.453-0.178,9.168c-2.069,2.75-5.64,3.819-8.879,2.667l-25.158-8.991c-3.646-1.806-8.084-0.302-9.89,3.349   c-0.878,1.77-1.012,3.772-0.38,5.64c0.62,1.834,1.905,3.325,3.626,4.21l28.004,12.092c0.366,0.162,32.458,14.375,34.058,15.065   l0.353,0.169c3.331,1.758,6.824,3.161,10.381,4.169l0.256,0.071c0.209,0.058,0.417,0.117,0.629,0.168l0.107,0.027   c4.776,1.259,9.693,1.847,14.639,1.737c14.141-0.283,27.357-6.007,37.225-16.119c11.372-11.655,14.098-25.744,14.662-29.785   c2.431-17.4-4.733-30.954-7.927-35.974L310.792,107.952z" fill="none"/><path d="M202.334,260.963c-5.238,0-9.5,4.262-9.5,9.5s4.262,9.5,9.5,9.5s9.5-4.262,9.5-9.5   S207.573,260.963,202.334,260.963z M202.334,274.963c-2.481,0-4.5-2.019-4.5-4.5s2.019-4.5,4.5-4.5s4.5,2.019,4.5,4.5   S204.816,274.963,202.334,274.963z" fill="#333333"/><path d="M352.423,174.255c0.598-17.587-6.556-31.029-9.982-36.414l-23.296-35.387   c-2.555-3.88-6.466-6.533-11.015-7.47c-2.816-0.58-5.668-0.457-8.352,0.325V36.008c0-2.76-2.24-5-5-5h-184.9c-2.76,0-5,2.24-5,5   v156.398l-45.573,54.087c-4.48,5.316-7.269,11.778-8.063,18.688l-4.725,41.11c-0.796,4.021-1.007,8.058-0.699,12.015   c-1.77,12.036,1.276,24.273,8.51,33.872c7.276,9.654,18.021,15.561,30.255,16.63c1.429,0.125,2.85,0.187,4.258,0.187   c5.727,0,11.235-1.026,16.131-3.023c1.278-0.522,1.892-1.981,1.37-3.259s-1.984-1.894-3.259-1.371   c-5.367,2.19-11.612,3.051-18.064,2.485c-10.804-0.944-20.285-6.15-26.697-14.658c-2.32-3.079-4.144-6.469-5.469-10.043   c4.139,6.411,9.932,11.806,17.032,15.447c6.406,3.286,13.351,4.876,20.245,4.876c12.143,0,24.13-4.935,32.749-14.236l14.052-18.905   c3.801-5.127,5.894-11.464,5.894-17.845v-11.492h151.953c2.76,0,5-2.24,5-5v-57.716c13.144-2.233,25.218-8.529,34.689-18.236   c8.448-8.658,12.872-18.27,15.185-25.667c-0.185,15.939-8.083,31.116-22.296,40.679c-5.98,4.023-12.204,6.792-18.498,8.23   c-1.346,0.307-2.188,1.647-1.881,2.994c0.265,1.159,1.295,1.944,2.436,1.944c0.184,0,0.371-0.021,0.559-0.063   c6.896-1.575,13.684-4.588,20.176-8.956C350.562,221.44,359.142,197.171,352.423,174.255z M132.825,308.46   c0,4.251-1.395,8.474-3.927,11.89l-13.534,18.257c-10.492,11.148-27.276,14.061-40.916,7.065   c-13.719-7.035-21.156-22.5-18.087-37.608l4.815-41.741c0.569-4.949,2.566-9.578,5.775-13.386l37.926-45.012v18.193L75.243,267.27   c-1.613,2.241-1.104,5.366,1.137,6.979c2.241,1.614,5.365,1.104,6.979-1.136l37.119-51.562c1.603-1.873,4.383-2.206,6.383-0.743   c2.033,1.486,2.546,4.301,1.165,6.409l-13.984,26.121c-4.953,8.743-5.041,18.29-4.396,27.305l1.095,15.331   c0.507,7.095-2.372,14.144-7.7,18.856l-11.475,10.147c-2.068,1.829-2.263,4.989-0.433,7.058c0.987,1.118,2.364,1.688,3.747,1.688   c1.177,0,2.359-0.414,3.311-1.254l11.475-10.147c7.219-6.385,11.299-15.758,11.121-25.353h12.04V308.46z M120.121,286.968   l-0.502-7.037c-0.534-7.465-0.522-15.262,3.146-21.705l3.023-5.655v0.847c0,1.39,1.12,2.5,2.5,2.5h148.09c1.38,0,2.5-1.11,2.5-2.5   v-11.22c0-1.38-1.12-2.5-2.5-2.5c-1.38,0-2.5,1.12-2.5,2.5v8.72h-143.09v-7.7l5.736-10.729c4.131-6.541,2.504-15.174-3.764-19.754   c-0.633-0.463-1.296-0.851-1.972-1.199V56.988h143.09v37.25c0,1.38,1.12,2.5,2.5,2.5c1.38,0,2.5-1.12,2.5-2.5v-39.75   c0-1.38-1.12-2.5-2.5-2.5h-148.09c-1.38,0-2.5,1.12-2.5,2.5v155.521c-3.852-0.45-7.799,0.626-10.91,3.119v-18.253   c0.069-0.474,0.066-0.949,0-1.421V41.008h174.9v61.971c-0.288,0.474-0.563,0.958-0.805,1.461c-0.241,0.5-0.461,1.019-0.656,1.551   c-0.354-0.261-0.733-0.517-1.146-0.763c-2.032-1.211-4.349-2.012-6.701-2.315c-8.252-1.064-16.518,4.165-19.037,11.679   c-0.015-0.009-0.029-0.017-0.045-0.025c-5.697-3.2-12.627-2.957-18.085,0.634c-2.784,1.833-4.868,4.333-6.183,7.152l-20.041-30.443   c-1.523-2.313-3.599-4.248-5.999-5.596c-5.699-3.199-12.628-2.957-18.085,0.635c-8.008,5.272-10.234,16.076-4.962,24.084   l42.669,64.815l-18.25-6.496c-8.53-4.03-18.795-0.481-22.999,8.012c-2.064,4.164-2.381,8.881-0.892,13.283   c1.487,4.397,4.599,7.955,8.761,10.018l28.335,12.243c1.29,0.571,30.883,13.677,33.919,15.004   c3.896,2.042,7.984,3.676,12.192,4.869l0.255,0.071c0.308,0.085,0.613,0.17,0.925,0.246c5.227,1.373,10.601,2.067,15.991,2.067   c0.28,0,0.559-0.005,0.839-0.009v51.813H120.121z M341.972,179.247c-0.564,4.041-3.29,18.13-14.662,29.785   c-9.867,10.111-23.084,15.836-37.225,16.119c-4.945,0.11-9.862-0.478-14.639-1.737l-0.107-0.027   c-0.212-0.051-0.42-0.11-0.629-0.168l-0.256-0.071c-3.557-1.008-7.05-2.411-10.381-4.169l-0.353-0.169   c-1.6-0.69-33.691-14.903-34.058-15.065l-28.004-12.092c-1.721-0.886-3.006-2.376-3.626-4.21c-0.632-1.868-0.498-3.87,0.38-5.64   c1.806-3.651,6.244-5.154,9.89-3.349l25.158,8.991c3.239,1.152,6.81,0.083,8.879-2.667c2.044-2.715,2.11-6.384,0.178-9.168   l-46.133-70.076c-2.24-3.403-1.295-7.993,2.107-10.233c2.319-1.526,5.266-1.63,7.691-0.268c1.029,0.578,1.885,1.378,2.542,2.376   l29.045,44.119c0.877,1.369,2.205,2.307,3.747,2.644c1.522,0.334,3.141,0.029,4.441-0.83c1.315-0.867,2.24-2.248,2.537-3.791   c0.296-1.54-0.033-3.11-0.927-4.432l-0.877-1.333c-2.24-3.403-1.295-7.994,2.107-10.233c2.32-1.526,5.267-1.629,7.691-0.268   c1.029,0.578,1.885,1.378,2.542,2.375l0.704,1.071c1.712,2.6,5.119,3.553,7.932,2.217c2.809-1.335,4.224-4.58,3.284-7.566   c-0.324-1.017-0.395-2.018-0.208-2.974c0.638-3.281,4.829-6.043,8.447-5.577c1.003,0.129,1.99,0.47,2.856,0.986   c0.622,0.371,1.091,0.9,1.936,1.885c3.39,3.945,6.872,3.421,8.643,2.758c4.312-1.613,4.605-5.922,4.702-7.338   c0.014-0.2,0.019-0.398,0.042-0.546c0.144-0.649,0.348-1.251,0.608-1.789c0.574-1.192,1.467-2.209,2.579-2.942   c1.648-1.085,3.621-1.464,5.554-1.066c1.932,0.398,3.594,1.525,4.68,3.175l23.253,35.321   C337.239,148.293,344.403,161.847,341.972,179.247z" fill="#333333"/><path d="M180.993,125.561c1.55,1.399,3.236,2.647,5.012,3.711c0.402,0.241,0.846,0.356,1.283,0.356   c0.85,0,1.678-0.434,2.146-1.215c0.71-1.185,0.325-2.72-0.859-3.43c-1.498-0.897-2.922-1.952-4.232-3.134   c-5.354-4.832-8.507-11.459-8.876-18.662s2.088-14.118,6.92-19.472c9.973-11.053,27.081-11.93,38.134-1.957   c4.943,4.461,8.054,10.561,8.758,17.175c0.146,1.373,1.375,2.375,2.751,2.221c1.373-0.146,2.367-1.377,2.222-2.75   c-0.835-7.84-4.521-15.07-10.381-20.357c-6.346-5.727-14.546-8.636-23.078-8.201c-8.536,0.438-16.392,4.174-22.118,10.52   c-5.726,6.346-8.639,14.542-8.2,23.078C170.91,111.98,174.647,119.835,180.993,125.561z" fill="#333333"/><path d="M210.862,211.851c-11.283,2.088-23.413-3.783-28.856-13.952c-5.417-10.121-3.332-23.497,4.958-31.805   c5.02-5.029,12.1-7.872,19.372-7.762c1.384,0.018,2.515-1.086,2.533-2.467c0.018-1.38-1.087-2.514-2.467-2.533   c-0.142-0.001-0.282-0.002-0.423-0.002c-8.486,0-16.687,3.352-22.555,9.233c-9.808,9.828-12.258,25.682-5.827,37.696   c5.571,10.407,17.067,17.006,28.713,17.006c1.824,0,3.652-0.162,5.46-0.496c1.358-0.251,2.255-1.555,2.004-2.913   C213.523,212.498,212.22,211.6,210.862,211.851z" fill="#333333"/></g></svg>