<svg xmlns="http://www.w3.org/2000/svg" width="74" height="73" viewBox="0 0 74 73"><defs><linearGradient id="a" x1="0%" x2="65.095%" y1="125.354%" y2="-6.919%"><stop stop-color="#04DAF4" offset="0%"/><stop stop-color="#02B3E4" offset="100%"/></linearGradient><linearGradient id="b" x1="69.849%" x2="1.848%" y1="7.282%" y2="215.997%"><stop stop-color="#04DAF4" offset="0%"/><stop stop-color="#02B3E4" offset="100%"/></linearGradient></defs><g fill="#FFF" fill-rule="evenodd" stroke-width="3"><path stroke="url(#a)" d="M27.642 52.423c14.753 0 26.712-11.627 26.712-25.969S42.394.485 27.642.485C12.889.485.929 12.112.929 26.454s11.96 25.969 26.713 25.969zm.737.895v6.268h.184v-6.268h-.184zm-3.5 6.268h7.368V82.87h-7.369V59.586zm.92 14.149h5.822v.18h-5.822v-.18" stroke-linejoin="round" transform="scale(-1 1) rotate(-45 -6.036 115.497)"/><path stroke="url(#b)" d="M13.771 26.214a19.177 19.177 0 0 0 2.269-9.066c0-4.437-1.509-8.53-4.054-11.824" stroke-linecap="round" transform="matrix(1 0 0 -1 48.365 46.57)"/></g></svg>