<?xml version="1.0" encoding="iso-8859-1"?>
<!-- Generator: Adobe Illustrator 19.0.0, SVG Export Plug-In . SVG Version: 6.00 Build 0)  -->
<svg version="1.1" id="Layer_1" xmlns="http://www.w3.org/2000/svg" xmlns:xlink="http://www.w3.org/1999/xlink" x="0px" y="0px"
	 viewBox="0 0 505 505" style="enable-background:new 0 0 505 505;" xml:space="preserve">
<circle style="fill:#324A5E;" cx="252.5" cy="252.5" r="252.5"/>
<polygon style="fill:#84DBFF;" points="120.2,243.6 169.9,169.9 175.6,159.6 179.5,170.8 243.7,322.9 358.4,230.3 387.6,249 
	387.6,261.9 359.1,243.8 239.3,340.5 173.3,184.4 129.3,249.7 "/>
<polygon style="fill:#FF7058;" points="170.4,284.6 254,156 331.9,330.4 387.6,319.4 387.6,330.5 325.5,342.8 252.2,178.8 
	178.5,292.3 127.9,329.2 121.5,320.4 "/>
<g>
	<polygon style="fill:#FFFFFF;" points="117.4,387.3 387.1,387.3 387.1,372.7 132,372.7 132,117.7 117.4,117.7 	"/>
	<polygon style="fill:#FFFFFF;" points="381.7,353.3 381.7,407.1 418.1,380.2 	"/>
	<polygon style="fill:#FFFFFF;" points="98.2,125.9 152.1,125.9 125.2,89.5 	"/>
</g>
<g>
</g>
<g>
</g>
<g>
</g>
<g>
</g>
<g>
</g>
<g>
</g>
<g>
</g>
<g>
</g>
<g>
</g>
<g>
</g>
<g>
</g>
<g>
</g>
<g>
</g>
<g>
</g>
<g>
</g>
</svg>
