<?xml version="1.0" encoding="iso-8859-1"?>
<!-- Generator: Adobe Illustrator 19.0.0, SVG Export Plug-In . SVG Version: 6.00 Build 0)  -->
<svg version="1.1" id="Capa_1" xmlns="http://www.w3.org/2000/svg" xmlns:xlink="http://www.w3.org/1999/xlink" x="0px" y="0px"
	 viewBox="0 0 409.6 409.6" style="enable-background:new 0 0 409.6 409.6;" xml:space="preserve">
<circle style="fill:#DC8744;" cx="170.086" cy="170.086" r="170.086"/>
<circle style="fill:#F6C358;" cx="170.086" cy="170.086" r="137.416"/>
<path style="fill:#DC8744;" d="M164.344,278.113v-19.028c-23.822-2.429-45.204-11.9-64.126-28.404l19.028-22.676
	c14.594,12.685,29.613,20.237,45.098,22.676v-50.571c-19.643-4.688-34.025-10.861-43.147-18.508s-13.682-18.985-13.682-34.015
	s5.24-27.322,15.761-36.889c10.522-9.556,24.204-14.764,41.068-15.634V62.03h16.673v13.29c19.113,1.4,37.186,7.912,54.22,19.558
	l-16.949,23.981c-11.476-8.167-23.886-13.205-37.271-15.125v49.001h0.785c19.982,4.699,34.662,11.041,44.038,19.028
	c9.397,7.997,14.085,19.601,14.085,34.799c0,15.21-5.388,27.598-16.164,37.143c-10.776,9.567-25.01,14.775-42.744,15.644v18.763
	H164.344z M145.953,109.865c-4.433,3.903-6.64,8.771-6.64,14.594c0,5.823,1.739,10.426,5.218,13.809
	c3.458,3.394,10.076,6.65,19.813,9.779v-45.098C156.517,103.649,150.386,105.951,145.953,109.865z M200.83,224.159
	c4.858-3.988,7.297-9.026,7.297-15.114c0-6.077-1.909-10.903-5.727-14.467c-3.84-3.564-10.967-6.905-21.382-10.034v46.912
	C189.354,230.597,195.951,228.158,200.83,224.159z"/>
<g>
	
		<rect x="239.118" y="229.684" transform="matrix(-0.7071 0.7071 -0.7071 -0.7071 586.4172 242.88)" style="fill:#3A556A;" width="7.578" height="26.414"/>
	
		<rect x="314.573" y="305.153" transform="matrix(-0.7071 0.7071 -0.7071 -0.7071 768.592 318.3583)" style="fill:#3A556A;" width="7.578" height="26.414"/>
	
		<rect x="314.573" y="229.723" transform="matrix(-0.7071 -0.7071 0.7071 -0.7071 371.6997 639.8241)" style="fill:#3A556A;" width="7.578" height="26.414"/>
	
		<rect x="239.118" y="305.156" transform="matrix(-0.7071 -0.7071 0.7071 -0.7071 189.5504 715.2412)" style="fill:#3A556A;" width="7.578" height="26.414"/>
	<rect x="276.838" y="214.072" style="fill:#3A556A;" width="7.578" height="26.414"/>
	<rect x="276.838" y="320.768" style="fill:#3A556A;" width="7.578" height="26.414"/>
	<rect x="320.773" y="276.833" style="fill:#3A556A;" width="26.414" height="7.578"/>
	<rect x="214.072" y="276.849" style="fill:#3A556A;" width="26.414" height="7.578"/>
</g>
<polygon style="fill:#64798A;" points="409.6,333.409 279.319,279.32 333.409,409.6 349.601,366.843 377.827,395.068 
	395.069,377.826 366.843,349.6 "/>
<g>
</g>
<g>
</g>
<g>
</g>
<g>
</g>
<g>
</g>
<g>
</g>
<g>
</g>
<g>
</g>
<g>
</g>
<g>
</g>
<g>
</g>
<g>
</g>
<g>
</g>
<g>
</g>
<g>
</g>
</svg>
