<?xml version="1.0" encoding="iso-8859-1"?>
<!-- Generator: Adobe Illustrator 19.0.0, SVG Export Plug-In . SVG Version: 6.00 Build 0)  -->
<svg version="1.1" id="Layer_1" xmlns="http://www.w3.org/2000/svg" xmlns:xlink="http://www.w3.org/1999/xlink" x="0px" y="0px"
	 viewBox="0 0 504.4 504.4" style="enable-background:new 0 0 504.4 504.4;" xml:space="preserve">
<circle style="fill:#324A5E;" cx="252.2" cy="252.2" r="252.2"/>
<polygon style="fill:#FF7058;" points="252.2,309.6 373.9,400.4 373.9,218.8 "/>
<polygon style="fill:#CED5E0;" points="373.9,218.8 373.9,218.8 252.2,128 130.5,218.8 130.5,218.8 252.2,309.6 "/>
<polygon style="fill:#F1543F;" points="252.2,309.6 130.5,400.4 373.9,400.4 "/>
<polygon style="fill:#FF7058;" points="130.5,218.8 130.5,400.4 252.2,309.6 "/>
<path style="fill:#FFFFFF;" d="M307.5,167.9H328c12.2,0,22.1-9.9,22.1-22.1l0,0c0-12.2-9.9-22.1-22.1-22.1h-20.5V167.9z"/>
<path style="fill:#54C0EB;" d="M193.6,175.1l33.9-9.6l20.7,73.1c1.5,5.2-1.5,10.5-6.7,12l0,0c-4.4,1.3-9.1-0.8-11.3-4.9L193.6,175.1
	z"/>
<path style="fill:#FFFFFF;" d="M202,97.8h2.8c34,0,67.2-8.3,97-24.1c10.8-5.7,23.7,2.2,23.7,14.4v112.7c0,12.1-12.7,20-23.5,14.6
	c-28.8-14.4-60.6-22.1-93.1-22.1H202c-26.4,0-47.8-21.4-47.8-47.8l0,0C154.2,119.2,175.6,97.8,202,97.8z"/>
<path style="fill:#54C0EB;" d="M301.3,74c0.1,0,0.2-0.1,0.3-0.1c10.9-5.7,24,2,24,14.3v112.7c0,12.2-12.8,19.9-23.7,14.5
	c-0.2-0.1-0.4-0.2-0.6-0.3V74L301.3,74z"/>
<g>
</g>
<g>
</g>
<g>
</g>
<g>
</g>
<g>
</g>
<g>
</g>
<g>
</g>
<g>
</g>
<g>
</g>
<g>
</g>
<g>
</g>
<g>
</g>
<g>
</g>
<g>
</g>
<g>
</g>
</svg>
